<svg id="about_us" data-name="about us" xmlns="http://www.w3.org/2000/svg" width="27.287" height="27.287" viewBox="0 0 27.287 27.287">
  <path id="Path" d="M0,0H27.287V27.287H0Z" fill="none"/>
  <path id="Shape" d="M11.364,22.739A11.373,11.373,0,0,1,3.327,3.329,11.371,11.371,0,1,1,19.407,19.41,11.306,11.306,0,0,1,11.364,22.739ZM9.2,15.918a16.048,16.048,0,0,0,2.171,4.508,16.02,16.02,0,0,0,2.171-4.508Zm-5.7,0a9.1,9.1,0,0,0,4.923,4.053,18.317,18.317,0,0,1-1.57-4.053Zm12.393,0h0a18.194,18.194,0,0,1-1.57,4.047,9.154,9.154,0,0,0,4.924-4.047H15.889ZM16.327,9.1a17.675,17.675,0,0,1,.159,2.274,18.568,18.568,0,0,1-.159,2.274h3.837a8.906,8.906,0,0,0,.3-2.274,9.148,9.148,0,0,0-.3-2.274Zm-7.618,0a15.846,15.846,0,0,0-.182,2.274,15.823,15.823,0,0,0,.182,2.274H14.03a15.561,15.561,0,0,0,.182-2.274A15.668,15.668,0,0,0,14.03,9.1Zm-6.14,0h0a8.889,8.889,0,0,0,0,4.547H6.413a17.9,17.9,0,0,1-.16-2.274A18.926,18.926,0,0,1,6.407,9.1H2.569ZM14.315,2.774a18.3,18.3,0,0,1,1.569,4.048h3.354a9.088,9.088,0,0,0-4.923-4.048Zm-2.945-.46A15.714,15.714,0,0,0,9.2,6.822h4.343A15.707,15.707,0,0,0,11.37,2.314Zm-2.95.455A9.1,9.1,0,0,0,3.5,6.822H6.85A18.3,18.3,0,0,1,8.419,2.769Z" transform="translate(2.274 2.274)" fill="#fff"/>
</svg>
