<svg xmlns="http://www.w3.org/2000/svg" width="17.263" height="30.226" viewBox="0 0 17.263 30.226">
  <g id="about" transform="translate(-140.636 -604.285)">
    <path id="Path_2475" data-name="Path 2475" d="M41.431,48.368c-.406,1.725.1,3.821,1.319,4.126s2.672-1.251,3.111-3.01-.3-3.01-1.522-3.314S41.87,46.61,41.431,48.368Z" transform="translate(105.874 573.773)" fill="#fff"/>
    <path id="Path_2476" data-name="Path 2476" d="M25.472,28.577c4.295,3.449,13.426,1.657,13.764-6.967.3-8.218-6.662-9.6-6.392-16.233-.879,4.836-.135,6.493,1.522,9.368,1.725,2.942,2.131,7.406-1.184,9.638a4.608,4.608,0,0,1-7.2-4.058c0-4.193,2.435-7.677,3.889-11.431C31.931,3.585,30.206,0,30.206,0c.338,4.937-4.058,9.334-6.189,13.663C21.008,19.784,21.21,25.093,25.472,28.577Z" transform="translate(118.654 604.285)" fill="#fff"/>
  </g>
</svg>
