<svg xmlns="http://www.w3.org/2000/svg" width="25.73" height="30.123" viewBox="0 0 25.73 30.123">
  <g id="apple" transform="translate(-37.336)">
    <g id="Group_181" data-name="Group 181" transform="translate(49.702)">
      <g id="Group_180" data-name="Group 180" transform="translate(0)">
        <path id="Path_2468" data-name="Path 2468" d="M253.667,0a7.069,7.069,0,0,0-4.577,2.478,6.14,6.14,0,0,0-1.5,4.771,5.966,5.966,0,0,0,4.618-2.359A6.628,6.628,0,0,0,253.667,0Z" transform="translate(-247.522)"/>
      </g>
    </g>
    <g id="Group_183" data-name="Group 183" transform="translate(37.336 7.051)">
      <g id="Group_182" data-name="Group 182" transform="translate(0)">
        <path id="Path_2469" data-name="Path 2469" d="M62.194,122.9a7.625,7.625,0,0,0-5.755-3.056c-2.7,0-3.844,1.293-5.721,1.293-1.935,0-3.406-1.29-5.742-1.29a7.813,7.813,0,0,0-6.288,3.8c-2.178,3.377-1.805,9.728,1.725,15.137,1.263,1.935,2.95,4.112,5.157,4.131,1.964.019,2.517-1.259,5.177-1.273s3.165,1.29,5.125,1.269c2.208-.017,3.987-2.429,5.251-4.364a21.7,21.7,0,0,0,1.945-3.652A6.641,6.641,0,0,1,62.194,122.9Z" transform="translate(-37.336 -119.84)"/>
      </g>
    </g>
  </g>
</svg>
