<svg xmlns="http://www.w3.org/2000/svg" width="56" height="57" viewBox="0 0 56 57">
  <g id="back" transform="translate(-387 -528)">
    <ellipse id="Ellipse_48" data-name="Ellipse 48" cx="28" cy="28.5" rx="28" ry="28.5" transform="translate(387 528)" fill="#757575" opacity="0.25"/>
    <g id="_Icons_35_Left_5" data-name="_Icons / 35 Left_5" transform="translate(400.575 548.532)">
      <path id="_35_Left_5" data-name="35 Left_5" d="M10.777,3.75V.931A.93.93,0,0,1,12.349.257L19.135,6.7a.93.93,0,0,1,0,1.349L12.349,14.5a.93.93,0,0,1-1.572-.674V11.006c-5.247,0-8.1,3.586-9.893,7.526A.465.465,0,0,1,0,18.308C.549,10.987,3.526,4.8,10.777,3.75Z" transform="translate(0 0)" fill="#fff"/>
    </g>
  </g>
</svg>
