<svg xmlns="http://www.w3.org/2000/svg" width="147.415" height="194.235" viewBox="0 0 147.415 194.235">
  <g id="Group_374" data-name="Group 374" transform="translate(-233.691 -531.387)">
    <path id="Path_2768" data-name="Path 2768" d="M381.024,660.744c-1.157-1.273-68.207-1.215-71.042,0s-75.5,55.769-75.091,58.314,119.058,8.042,122.819,6.19S382.586,662.422,381.024,660.744Z" fill="#313456"/>
    <path id="Path_2769" data-name="Path 2769" d="M301.478,670.926s-2.372,5.727-2.546,10.124c-5.727,0-34.479-3.124-44.083,0s-8.851,16.545-8.562,19.785,8.562,8.273,31.009,9.719,34.826,3.24,34.826,3.24,0-5.033,2.662-7.058c6.479,1.157,22.157,5.611,26.264,5.322s13.248-4.107,14.463-7.694S351.982,684,351.982,684s-2.777-2.95-11.686-1.446c-1.273-7.694-4.107-11.628-4.107-11.628S316.23,676.422,301.478,670.926Z" fill="#ed554f"/>
    <path id="Path_2770" data-name="Path 2770" d="M301.478,656.694s-.174,12.265,0,14.232c4.917,4.339,29.1,3.934,34.6,0,.174-6.711,1.157-14.81,1.157-14.81S314.09,657.967,301.478,656.694Z" fill="#faa784"/>
    <path id="Path_2771" data-name="Path 2771" d="M301.42,659.24c7.231,1.273,27.074,2.777,35.521-.463.173-1.62.289-2.661.289-2.661s-23.141,1.909-35.752.578C301.478,656.694,301.478,657.736,301.42,659.24Z" fill="#ed554f" opacity="0.6"/>
    <path id="Path_2772" data-name="Path 2772" d="M368.817,703.091c-1.273-2.95-5.727-5.843-8.967-8.967-.116-.52-.232-1.215-.347-2.025,0,0-2.951-24.76-4.339-33.611s.4-38.761-2.777-43.852c-4.107-6.71-18.686-12.38-19.38-13.942s-1.042-18.57-1.042-18.57l-14.115,8.62s.694,10.008-.29,10.644-17.471,2.488-22.446,9.141-19.785,31.876-24.3,38.587-15.909,23.6-19.669,27.942c-4.339,1.157-9.661,1.562-12.207,3.529s-3.529,7.058-1.157,6.884c1.794,0,1.909-4.512,5.438-4.917s1.447,3.355,1.447,3.355-3.876,7.116-5.9,2.2c-.116-.463-1.5-.81-2.025.462a3.366,3.366,0,0,0,3.992,4.05c-2.141,1.793-7.579,7.289-7,8.562s8.677-5.9,8.677-5.9-5.727,6.364-4.4,7.579,17.008-16.314,20.363-20.653,16.777-16.546,23.546-28.81c4.744-5.612,16.256-21.926,16.256-21.926l22.794-5.5,15.157,10.645,4.107-2.951s2.546,20.48,3.761,26.554c-1.158,5.9,1.388,13.364,3.355,18.686a80.524,80.524,0,0,1,3.124,13.133c.289,1.33.578,2.429.694,3.239.81,5.38,6.132,28.347,7.868,27.942s-.232-8.735-.232-8.735,3.587,10.182,4.744,9.372-.925-8.273-1.967-10.876a3.355,3.355,0,0,0,5.438-1.62c.116-1.331-1.272-1.678-1.562-1.389-4.165,3.356-4.107-4.8-4.107-4.8s-.058-4.281,2.892-2.256.868,6.074,2.372,6.942C368.528,711.017,370.147,706.1,368.817,703.091Z" fill="#faa784"/>
    <path id="Path_2773" data-name="Path 2773" d="M243.221,682.5c2.083-.231,2.2.926,1.967,1.967,0,0,2.2-3.413-1.619-3.008a4.192,4.192,0,0,0-3.934,3.991C240.329,684.174,241.255,682.727,243.221,682.5Z" fill="#ed554f" opacity="0.6"/>
    <path id="Path_2774" data-name="Path 2774" d="M253.866,681.4s-3.3,0-4.223,4.05a11.935,11.935,0,0,1-2.95,5.9,22.383,22.383,0,0,0,2.2-6.248C249.238,682.323,252.015,679.719,253.866,681.4Z" fill="#ed554f" opacity="0.6"/>
    <path id="Path_2775" data-name="Path 2775" d="M364.131,702.744c-1.735-1.157-2.372-.173-2.661.81,0,0-.4-4.05,2.835-1.967s1.446,5.38,1.562,5.38C365.809,705.579,365.751,703.843,364.131,702.744Z" fill="#ed554f" opacity="0.6"/>
    <path id="Path_2776" data-name="Path 2776" d="M354.354,700.256s3.182.926,2.95,5.034a11.632,11.632,0,0,0,1.273,6.479,22.125,22.125,0,0,1-.463-6.595C358.519,702.4,356.61,699.1,354.354,700.256Z" fill="#ed554f" opacity="0.6"/>
    <path id="Path_2777" data-name="Path 2777" d="M298.99,629.62V618.8c1.505,1.851,1.91,5.38,1.91,5.38Z" fill="#ed554f" opacity="0.6"/>
    <path id="Path_2778" data-name="Path 2778" d="M332.023,582.124l-14.173,8.62s.173,2.719.231,5.438a29.825,29.825,0,0,0,14.116-7.29C332.081,585.19,332.023,582.124,332.023,582.124Z" fill="#ed554f" opacity="0.6"/>
    <path id="Path_2779" data-name="Path 2779" d="M297.37,563.033a7.554,7.554,0,0,0-5.438,6.479c-.752,7.984,4.281,8.967,5.438,8.967s3.761,3.356,3.761,3.356,6.479,10.644,14.578,10.008,15.331-5.9,18.108-9.256c3.124-3.124,3.587-2.2,4.744-1.62,3.644,1.909,9.834-1.909,9.834-9.2s-4.512-10.413-9.834-7.057c-2.546-.81-10.992-15.331-10.992-15.331s-23.2,2.777-23.2,3.355S297.37,563.033,297.37,563.033Z" fill="#faa784"/>
    <path id="Path_2780" data-name="Path 2780" d="M338.445,564.711c-2.546-.81-10.992-15.331-10.992-15.331s-23.2,2.777-23.2,3.355-6.885,10.3-6.885,10.3a14.074,14.074,0,0,0-1.388.578,56.754,56.754,0,0,0-.637,14.348,5.009,5.009,0,0,0,2.025.52c1.157,0,3.761,3.356,3.761,3.356a14.272,14.272,0,0,0,1.157,1.619c-.174-6.826.231-14.636,2.024-21.4a25.574,25.574,0,0,0,10.992-5.09c-2.14,4.917-3.124,6.074-3.124,6.074s9.835-2.777,14.579-10.24a10.9,10.9,0,0,0,6.306,11.628c.347,1.967.289,11.108-1.389,20.364a15.435,15.435,0,0,0,2.141-2.2c3.124-3.124,4.743-1.62,4.743-1.62l.29-.058a57.48,57.48,0,0,0,1.1-15.1c.983-1.389,4.917-2.951,6.884-.174.058-.289-.578-.115-.52-.636C344.4,562.975,341.569,562.744,338.445,564.711Z" fill="#efc6b3" opacity="0.502"/>
    <path id="Path_2781" data-name="Path 2781" d="M347.123,553.2c5.264.579,4.975-9.2,2.892-13.479-3.3-6.827-16.371-10.356-24.066-7.116-4.686,1.967-5.091,4.686-4.686,6.479a8.137,8.137,0,0,1-2.6-6.3c-1.388.983-1.388,6.363,2.256,7.578a5.405,5.405,0,0,0,.926.232c.116.231,22.562,13.942,22.562,13.942s5.727,1.851,5.322,6.711C350.768,560.487,351.172,555.339,347.123,553.2Z" fill="#0c122f"/>
    <path id="Path_2782" data-name="Path 2782" d="M341.222,547.587c.578-.29,8.562-3.182,5.5-11.686l-.868-.579s4.8,9.025-7.983,10.355C337.172,546.372,341.222,547.587,341.222,547.587Z" fill="#0c122f" opacity="0.6"/>
    <path id="Path_2783" data-name="Path 2783" d="M343.652,533.934s7.463,7.347-7.232,9.545a1.385,1.385,0,0,1-1.793-.752s14.636-1.331,7.983-9.256C343.363,534.339,343.652,533.934,343.652,533.934Z" fill="#0c122f" opacity="0.6"/>
    <path id="Path_2784" data-name="Path 2784" d="M338.329,532.082s-8.33-1.041-9.082,10.182a2.053,2.053,0,0,1-1.562-.868s-.637-8.5,8.273-9.776A19.061,19.061,0,0,1,338.329,532.082Z" fill="#0c122f" opacity="0.6"/>
    <path id="Path_2785" data-name="Path 2785" d="M330.172,541.454s-20.017-6.942-29.5,8.042-6.017,42.578,3.3,49.636c-.983-3.76-3.76-23.43.174-38.182a25.576,25.576,0,0,0,10.992-5.091c-2.141,4.918-3.124,6.075-3.124,6.075s9.834-2.777,14.578-10.24a10.9,10.9,0,0,0,6.306,11.628c.579,3.124.116,24.761-6.479,35.81,3.587-.405,14.578-11.454,13.421-34.421.984-1.389,4.686-2.025,6.653.694C347.47,562.049,348.858,545.215,330.172,541.454Z" fill="#0c122f"/>
    <path id="Path_2786" data-name="Path 2786" d="M304.2,560.95s2.43-10.818,10.529-14.173c-3.471,2.14-7.637,7.983-8.851,13.768C304.833,560.835,304.2,560.95,304.2,560.95Z" fill="#0c122f" opacity="0.6"/>
    <path id="Path_2787" data-name="Path 2787" d="M332.949,563.322s.81-9.545-1.967-14c1.562,4.513.694,13.306.694,13.306Z" fill="#b7d4f0" opacity="0.502"/>
    <path id="Path_2788" data-name="Path 2788" d="M339.833,564.71s.289-5.785-.868-9.14c1.967,2.256,2.083,8.273,2.083,8.273A1.733,1.733,0,0,0,339.833,564.71Z" fill="#0c122f" opacity="0.6"/>
    <path id="Path_2789" data-name="Path 2789" d="M310.445,602.95a10.275,10.275,0,0,0-5.5,1.562c-1.735,5.67-4.107,15.389-5.264,18.513-2.2,3.529-5.5,12.264-3.413,18.223s3.528,10.066,2.545,14.636c1.62,1.331,32.165,4.571,40.149-.752a127.711,127.711,0,0,1,1.851-17.124l-.578-4.57s-5.265,4.108-4.4-6.074,3.413-18.744,5.149-21.984a7.887,7.887,0,0,0-4.281-2.372,54.229,54.229,0,0,0-4.744,15.967c-.579.752-20.942,3.992-24.356-2.661C307.668,609.95,310.445,602.95,310.445,602.95Z" fill="#fff"/>
    <path id="Path_2790" data-name="Path 2790" d="M314.9,637.546a12.231,12.231,0,0,0,10.124,9.024C324.213,648.017,313.453,645.182,314.9,637.546Z" fill="#cbe8fa"/>
    <path id="Path_2791" data-name="Path 2791" d="M340.238,633.554s-1.735-7.984-2.14-8.736c-.174,3.529,0,9.546,0,9.546A3.406,3.406,0,0,0,340.238,633.554Z" fill="#ed554f" opacity="0.6"/>
    <path id="Path_2792" data-name="Path 2792" d="M300.9,695.108s1.447-4.628-4.165-5.38-7.81-1.62-10.934-4.571-3.992-2.024-6.942-.694c-2.372-1.215-5.959-.926-6.422,2.777a13.735,13.735,0,0,1,9.546,1.909c3.24,2.2,17.529,10.355,17.529,10.355S300.784,695.8,300.9,695.108Z" fill="#faa784"/>
    <path id="Path_2793" data-name="Path 2793" d="M326.238,684.463c-2.545.4-11.975,9.025-25.339,10.645a6.41,6.41,0,0,0-1.619,2.777c-4.05-2.315-7.752-4.455-9.488-5.554-4.86-3.008-11.05-7.347-17.355-5.091-.81.289-1.678.521-2.488.752-2.2-1.793-8.273-2.083-9.372-.636,4.86-.29,7.058,1.157,7.058,1.157h.058a63.11,63.11,0,0,1-9.314,1.214c1.041.753,7.81,1.157,11.628,0,9.43-3.991,13.132.753,17.587,3.124,1.793.984,26.322,14.7,26.322,14.7l.81-.81s-7.174-4.05-14-7.984a3.465,3.465,0,0,1,1.5-2.545,61.149,61.149,0,0,0,22.62-9.546c1.851-.694,18.108,3.645,18.86,2.951C343.767,689.612,328.842,684.116,326.238,684.463Z" fill="#d73138"/>
    <path id="Path_2794" data-name="Path 2794" d="M312.065,713.794s12.438,3.066,17.413,5.9c3.124,1.793,6.653-2.488,5.322-4.86,1.331,1.157,3.413-2.893.752-3.471-3.471-.694-20.768-4.686-20.768-4.686S312.065,708.471,312.065,713.794Z" fill="#faa784"/>
    <path id="Path_2795" data-name="Path 2795" d="M298.99,681.05s3.992,1.446,5.9,4.281c.116-2.2-5.785-5.9-5.785-5.9Z" fill="#d73138"/>
    <path id="Path_2796" data-name="Path 2796" d="M340.238,682.5a21.847,21.847,0,0,0-7.81,2.372c-.115-1.62,7.174-3.7,7.81-3.529Z" fill="#d73138"/>
    <path id="Path_2797" data-name="Path 2797" d="M307.957,689.323s2.546,2.834,3.124,4.454l-1.215.463Z" fill="#d73138"/>
    <path id="Path_2798" data-name="Path 2798" d="M310.329,568.644c-.868,1.389-3.934,2.546-4.281.116-.116-.752-1.273-.463-1.157.289a2.436,2.436,0,0,0,2.545,2.257,4.287,4.287,0,0,0,3.24-2.257C311.081,568.413,310.734,567.95,310.329,568.644Z" fill="#0c122f"/>
    <path id="Path_2799" data-name="Path 2799" d="M327.627,569.744c-1.562,1.909-5.67,2.834-6.422-.405-.173-.752-1.33-.4-1.157.289.926,4.165,5.785,3.182,7.984.579C328.552,569.628,328.089,569.165,327.627,569.744Z" fill="#0c122f"/>
    <path id="Path_2800" data-name="Path 2800" d="M311.255,576.744c.231.694,1.041.636.81-.116-.463-1.446.463-1.909,1.446-2.545a4.469,4.469,0,0,0,1.273-1.678c.81-1.562.173-3.645.4-5.322.116-.753-.463-.753-.579,0-.289,2.371-.115,5.206-2.429,6.537C310.792,574.314,310.85,575.471,311.255,576.744Z" fill="#ed554f" opacity="0.6"/>
    <path id="Path_2801" data-name="Path 2801" d="M318.081,581.14c-4.628,1.852-5.033.752-7.231-.347-.694-.347-1.273.694-.579,1.042,2.43,1.272,5.207.867,7.81.52C318.833,582.239,318.833,581.082,318.081,581.14Z" fill="#ed554f" opacity="0.6"/>
    <path id="Path_2802" data-name="Path 2802" d="M321.379,565a3.8,3.8,0,0,1,3.355.173c.695.348,1.273-.694.579-1.041a5.71,5.71,0,0,0-4.57-.173C320.048,564.306,320.685,565.289,321.379,565Z" fill="#0c122f"/>
    <path id="Path_2803" data-name="Path 2803" d="M308.247,564.595a4.339,4.339,0,0,1,2.834.115c.7.232,1.042-.925.29-1.157a5.48,5.48,0,0,0-3.472-.115C307.2,563.669,307.494,564.826,308.247,564.595Z" fill="#0c122f"/>
  </g>
</svg>
