<svg id="_Icons_Close_Copy_2" data-name="_Icons / Close Copy 2" xmlns="http://www.w3.org/2000/svg" width="19.561" height="22.854" viewBox="0 0 19.561 22.854">
  <path id="_21_Home" data-name="21 Home" d="M15.018,22.854H4.543a2.381,2.381,0,0,1-2.381-2.38v-9.6H1.423A1.429,1.429,0,0,1,.438,8.417L8.79.4A1.429,1.429,0,0,1,10.77.4l8.352,8.018a1.429,1.429,0,0,1-.99,2.457H17.4v9.6A2.383,2.383,0,0,1,15.018,22.854Zm-5.238-10a1.9,1.9,0,1,0,1.9,1.9A1.906,1.906,0,0,0,9.78,12.855Z" transform="translate(0)" fill="#78b543"/>
</svg>
