<svg xmlns="http://www.w3.org/2000/svg" width="196.511" height="184.422" viewBox="0 0 196.511 184.422">
  <g id="dddd" transform="translate(-12.238 0.018)">
    <g id="Layer_2_1_" transform="translate(-0.05 -0.018)">
      <g id="OBJECTS">
        <path id="Path_2728" data-name="Path 2728" d="M102.221,164.323S37.075,179.09,25.292,127.036,61.217,83.361,56.608,63.723,42.626,16.592,71.271,5.909c30.95-11.573,51.583-3.98,80.7,3.98s50.692,23.094,61.009,46.817c11.73,27.022,16.5,75.934-52.263,73.525C160.664,130.179,148.933,161.495,102.221,164.323Z" transform="translate(-11.126 0.018)" fill="#e4e4e4"/>
        <path id="MAT" d="M261.88,239.232c-1.047-1.152-61.742-1.1-64.308,0s-68.34,50.483-67.974,52.787,107.774,7.279,111.178,5.6S263.294,240.751,261.88,239.232Z" transform="translate(-61.703 -113.539)" fill="#454368"/>
        <g id="YOGA_STUDENT" transform="translate(66.809 8.597)">
          <path id="Path_2729" data-name="Path 2729" d="M199.141,257.6s-2.147,5.184-2.3,9.164c-5.184,0-31.211-2.828-39.9,0s-8.012,14.977-7.75,17.91,7.75,7.489,28.069,8.8,31.526,2.933,31.526,2.933,0-4.556,2.409-6.389c5.865,1.047,20.057,5.08,23.775,4.818s11.992-3.718,13.092-6.965-3.194-18.434-3.194-18.434-2.514-2.671-10.578-1.309c-1.152-6.965-3.718-10.526-3.718-10.526S212.5,262.575,199.141,257.6Z" transform="translate(-137.779 -131.288)" fill="#ff6e61"/>
          <path id="Path_2730" data-name="Path 2730" d="M244.636,232.524s-.157,11.1,0,12.883c4.451,3.928,26.341,3.561,31.316,0C276.11,239.332,277,232,277,232S256.053,233.676,244.636,232.524Z" transform="translate(-183.275 -119.094)" fill="#fab898"/>
          <path id="Path_2731" data-name="Path 2731" d="M244.6,234.828c6.546,1.152,24.508,2.514,32.154-.419.157-1.466.262-2.409.262-2.409s-20.947,1.728-32.364.524C244.652,232.524,244.652,233.466,244.6,234.828Z" transform="translate(-183.291 -119.094)" fill="#ff6e61" opacity="0.6"/>
          <path id="Path_2732" data-name="Path 2732" d="M249.844,213.6c-1.152-2.671-5.184-5.289-8.117-8.117-.1-.471-.209-1.1-.314-1.833,0,0-2.671-22.414-3.928-30.426s.367-35.087-2.514-39.7c-3.718-6.075-16.915-11.207-17.543-12.621s-.943-16.81-.943-16.81l-12.778,7.8s.628,9.06-.262,9.636-15.815,2.252-20.319,8.274-17.91,28.855-21.995,34.93-14.4,21.366-17.805,25.294c-3.928,1.047-8.745,1.414-11.05,3.194s-3.194,6.389-1.047,6.232c1.623,0,1.728-4.085,4.923-4.451s1.309,3.037,1.309,3.037-3.509,6.441-5.342,1.99c-.1-.419-1.362-.733-1.833.419a3.047,3.047,0,0,0,3.613,3.666c-1.938,1.623-6.86,6.6-6.337,7.75s7.855-5.342,7.855-5.342-5.184,5.76-3.98,6.86,15.4-14.768,18.434-18.7,15.187-14.977,21.314-26.079c4.294-5.08,14.715-19.848,14.715-19.848l20.633-4.975,13.72,9.636,3.718-2.671s2.3,18.538,3.4,24.037c-1.047,5.342,1.257,12.1,3.037,16.915a72.882,72.882,0,0,1,2.828,11.888c.262,1.2.524,2.2.628,2.933.733,4.87,5.551,25.66,7.122,25.294s-.209-7.908-.209-7.908,3.247,9.217,4.294,8.484-.838-7.489-1.781-9.845a3.037,3.037,0,0,0,4.923-1.466c.1-1.2-1.152-1.519-1.414-1.257-3.771,3.037-3.718-4.347-3.718-4.347s-.052-3.875,2.618-2.042.786,5.5,2.147,6.284C249.582,220.776,251.049,216.325,249.844,213.6Z" transform="translate(-127.526 -58.173)" fill="#fab898"/>
          <path id="Path_2733" data-name="Path 2733" d="M141.047,276.715c1.885-.209,1.99.838,1.781,1.781h0s1.99-3.09-1.466-2.723a3.8,3.8,0,0,0-3.561,3.613A4.3,4.3,0,0,1,141.047,276.715Z" transform="translate(-132.42 -139.929)" fill="#ff6e61" opacity="0.6"/>
          <path id="Path_2734" data-name="Path 2734" d="M156.494,275.264s-2.985,0-3.823,3.666A10.8,10.8,0,0,1,150,284.271a20.262,20.262,0,0,0,1.99-5.656C152.3,276.1,154.818,273.745,156.494,275.264Z" transform="translate(-138.231 -139.473)" fill="#ff6e61" opacity="0.6"/>
          <path id="Path_2735" data-name="Path 2735" d="M350.8,311.157c-1.571-1.047-2.147-.157-2.409.733h0s-.367-3.666,2.566-1.781,1.309,4.87,1.414,4.87C352.314,313.723,352.262,312.152,350.8,311.157Z" transform="translate(-232.719 -156.042)" fill="#ff6e61" opacity="0.6"/>
          <path id="Path_2736" data-name="Path 2736" d="M336.1,308.1s2.88.838,2.671,4.556a10.528,10.528,0,0,0,1.152,5.865,20.032,20.032,0,0,1-.419-5.97C339.871,310.042,338.142,307.057,336.1,308.1Z" transform="translate(-226.874 -155.241)" fill="#ff6e61" opacity="0.6"/>
          <path id="Path_2737" data-name="Path 2737" d="M240.4,177.293V167.5c1.362,1.676,1.728,4.87,1.728,4.87Z" transform="translate(-181.29 -88.371)" fill="#ff6e61" opacity="0.6"/>
          <path id="Path_2738" data-name="Path 2738" d="M285.83,104.1,273,111.9s.157,2.461.209,4.923a27,27,0,0,0,12.778-6.6C285.883,106.876,285.83,104.1,285.83,104.1Z" transform="translate(-196.818 -58.173)" fill="#ff6e61" opacity="0.6"/>
          <path id="Path_2739" data-name="Path 2739" d="M233.06,59.859a6.837,6.837,0,0,0-4.923,5.865c-.681,7.227,3.875,8.117,4.923,8.117s3.4,3.037,3.4,3.037,5.865,9.636,13.2,9.06a26.183,26.183,0,0,0,16.391-8.379c2.828-2.828,3.247-1.99,4.294-1.466,3.3,1.728,8.9-1.728,8.9-8.327s-4.085-9.426-8.9-6.389c-2.3-.733-9.95-13.878-9.95-13.878s-21,2.514-21,3.037S233.06,59.859,233.06,59.859Z" transform="translate(-175.416 -31.213)" fill="#fab898"/>
          <path id="Path_2740" data-name="Path 2740" d="M272.954,61.378C270.649,60.644,263,47.5,263,47.5s-21,2.514-21,3.037-6.232,9.322-6.232,9.322a12.792,12.792,0,0,0-1.257.524,51.374,51.374,0,0,0-.576,12.987,4.527,4.527,0,0,0,1.833.471c1.047,0,3.4,3.037,3.4,3.037a12.929,12.929,0,0,0,1.047,1.466,71.366,71.366,0,0,1,1.833-19.376,23.157,23.157,0,0,0,9.95-4.608c-1.938,4.451-2.828,5.5-2.828,5.5s8.9-2.514,13.2-9.269a9.868,9.868,0,0,0,5.708,10.526c.314,1.781.262,10.055-1.257,18.434a13.96,13.96,0,0,0,1.938-1.99c2.828-2.828,4.294-1.466,4.294-1.466l.262-.052a52.011,52.011,0,0,0,.995-13.668c.89-1.257,4.451-2.671,6.232-.157.052-.262-.524-.1-.471-.576C278.347,59.807,275.781,59.6,272.954,61.378Z" transform="translate(-178.128 -31.213)" fill="#f2d1c0" opacity="0.5"/>
          <path id="Path_2741" data-name="Path 2741" d="M299.459,36.142c4.766.524,4.5-8.327,2.618-12.2-2.985-6.179-14.82-9.374-21.785-6.441-4.242,1.781-4.608,4.242-4.242,5.865a7.367,7.367,0,0,1-2.357-5.708c-1.257.89-1.257,5.76,2.042,6.86a4.9,4.9,0,0,0,.838.209c.1.209,20.424,12.621,20.424,12.621s5.184,1.676,4.818,6.075C302.758,42.741,303.125,38.08,299.459,36.142Z" transform="translate(-196.779 -16.399)" fill="#18183e"/>
          <path id="Path_2742" data-name="Path 2742" d="M310.571,34.3c.524-.262,7.75-2.88,4.975-10.578l-.785-.524s4.346,8.169-7.227,9.374C306.906,33.2,310.571,34.3,310.571,34.3Z" transform="translate(-213.233 -19.638)" fill="#18183e" opacity="0.6"/>
          <path id="Path_2743" data-name="Path 2743" d="M310.169,20.419s6.755,6.651-6.546,8.641A1.253,1.253,0,0,1,302,28.379s13.249-1.2,7.227-8.379C309.908,20.786,310.169,20.419,310.169,20.419Z" transform="translate(-210.631 -18.114)" fill="#18183e" opacity="0.6"/>
          <path id="Path_2744" data-name="Path 2744" d="M299.628,17.219s-7.541-.943-8.222,9.217a1.86,1.86,0,0,1-1.414-.786s-.576-7.7,7.489-8.85A17.274,17.274,0,0,1,299.628,17.219Z" transform="translate(-204.907 -16.59)" fill="#18183e" opacity="0.6"/>
          <path id="Path_2745" data-name="Path 2745" d="M265.376,32.478s-18.119-6.284-26.708,7.279-5.446,38.543,2.985,44.932c-.89-3.4-3.4-21.209.157-34.563a23.157,23.157,0,0,0,9.95-4.608c-1.938,4.451-2.828,5.5-2.828,5.5s8.9-2.514,13.2-9.269a9.868,9.868,0,0,0,5.708,10.526c.524,2.828.1,22.414-5.865,32.416,3.247-.367,13.2-10.369,12.149-31.159.89-1.257,4.242-1.833,6.022.628C281.034,51.121,282.291,35.882,265.376,32.478Z" transform="translate(-178.04 -23.365)" fill="#18183e"/>
          <path id="Path_2746" data-name="Path 2746" d="M249.4,55.83s2.2-9.793,9.531-12.83c-3.142,1.938-6.913,7.227-8.012,12.464C249.976,55.725,249.4,55.83,249.4,55.83Z" transform="translate(-185.577 -29.069)" fill="#18183e" opacity="0.6"/>
          <path id="Path_2747" data-name="Path 2747" d="M297.48,60.073s.733-8.641-1.78-12.673c1.414,4.085.628,12.045.628,12.045Z" transform="translate(-207.63 -31.165)" fill="#c4ddfb" opacity="0.5"/>
          <path id="Path_2748" data-name="Path 2748" d="M310.286,66.474s.262-5.237-.786-8.274c1.781,2.042,1.885,7.489,1.885,7.489A1.569,1.569,0,0,0,310.286,66.474Z" transform="translate(-214.204 -36.31)" fill="#18183e" opacity="0.6"/>
          <path id="Path_2749" data-name="Path 2749" d="M247.985,140.1a9.3,9.3,0,0,0-4.975,1.414c-1.571,5.132-3.718,13.93-4.766,16.758-1.99,3.194-4.975,11.1-3.09,16.5s3.194,9.112,2.3,13.249c1.466,1.2,29.117,4.137,36.343-.681a115.522,115.522,0,0,1,1.676-15.5l-.524-4.137s-4.766,3.718-3.98-5.5,3.09-16.967,4.661-19.9a7.138,7.138,0,0,0-3.875-2.147,49.089,49.089,0,0,0-4.294,14.454c-.524.681-18.957,3.613-22.047-2.409A39.6,39.6,0,0,1,247.985,140.1Z" transform="translate(-178.506 -75.32)" fill="#fff"/>
          <path id="Path_2750" data-name="Path 2750" d="M267.79,199.9a11.072,11.072,0,0,0,9.164,8.169C276.221,209.379,266.481,206.813,267.79,199.9Z" transform="translate(-194.279 -103.804)" fill="#d6edfb"/>
          <path id="Path_2751" data-name="Path 2751" d="M309.874,185.808s-1.571-7.227-1.938-7.908c-.157,3.194,0,8.641,0,8.641A3.081,3.081,0,0,0,309.874,185.808Z" transform="translate(-213.426 -93.325)" fill="#ff6e61" opacity="0.6"/>
          <path id="Path_2752" data-name="Path 2752" d="M220.265,289.6s1.309-4.189-3.77-4.87-7.07-1.466-9.9-4.137-3.613-1.833-6.284-.628c-2.147-1.1-5.394-.838-5.813,2.514a12.431,12.431,0,0,1,8.641,1.728c2.933,1.99,15.868,9.374,15.868,9.374S220.16,290.227,220.265,289.6Z" transform="translate(-159.427 -141.396)" fill="#fab898"/>
          <path id="Path_2753" data-name="Path 2753" d="M231.628,280.987c-2.3.367-10.84,8.169-22.937,9.636a5.809,5.809,0,0,0-1.466,2.514c-3.666-2.095-7.017-4.032-8.588-5.027-4.4-2.723-10-6.651-15.71-4.608-.733.262-1.519.471-2.252.681-1.99-1.623-7.489-1.885-8.484-.576,4.4-.262,6.389,1.047,6.389,1.047h.052a57.154,57.154,0,0,1-8.431,1.1c.943.681,7.07,1.047,10.526,0,8.536-3.613,11.888.681,15.92,2.828,1.623.89,23.828,13.3,23.828,13.3l.733-.733s-6.494-3.666-12.673-7.227a3.137,3.137,0,0,1,1.362-2.3,55.351,55.351,0,0,0,20.476-8.641c1.676-.628,16.391,3.3,17.072,2.671C247.5,285.648,233.984,280.673,231.628,280.987Z" transform="translate(-147.852 -142.42)" fill="#e24949"/>
          <path id="Path_2754" data-name="Path 2754" d="M263,325.841s11.259,2.775,15.763,5.342c2.828,1.623,6.022-2.252,4.818-4.4,1.2,1.047,3.09-2.618.681-3.142-3.142-.628-18.8-4.242-18.8-4.242S263,321.023,263,325.841Z" transform="translate(-192.055 -160.724)" fill="#fab898"/>
          <path id="Path_2755" data-name="Path 2755" d="M240.4,273.766s3.613,1.309,5.342,3.875c.1-1.99-5.237-5.342-5.237-5.342Z" transform="translate(-181.29 -138.289)" fill="#e24949"/>
          <path id="Path_2756" data-name="Path 2756" d="M305.269,276.639a19.784,19.784,0,0,0-7.07,2.147c-.1-1.466,6.494-3.352,7.07-3.194Z" transform="translate(-208.82 -139.853)" fill="#e24949"/>
          <path id="Path_2757" data-name="Path 2757" d="M255.9,289.4a18.633,18.633,0,0,1,2.828,4.032l-1.1.419Z" transform="translate(-188.673 -146.434)" fill="#e24949"/>
          <path id="Path_2758" data-name="Path 2758" d="M255.516,80.515c-.786,1.257-3.561,2.3-3.875.1-.1-.681-1.152-.419-1.047.262a2.205,2.205,0,0,0,2.3,2.042,3.88,3.88,0,0,0,2.933-2.042C256.2,80.306,255.882,79.887,255.516,80.515Z" transform="translate(-186.142 -46.79)" fill="#18183e"/>
          <path id="Path_2759" data-name="Path 2759" d="M283.646,82.018c-1.414,1.728-5.132,2.566-5.813-.367-.157-.681-1.2-.367-1.047.262.838,3.77,5.237,2.88,7.227.524C284.484,81.914,284.065,81.495,283.646,82.018Z" transform="translate(-198.613 -47.298)" fill="#18183e"/>
          <path id="Path_2760" data-name="Path 2760" d="M261.393,86.381c.209.628.943.576.733-.1-.419-1.309.419-1.728,1.309-2.3a4.046,4.046,0,0,0,1.152-1.519c.733-1.414.157-3.3.367-4.818.1-.681-.419-.681-.524,0-.262,2.147-.1,4.713-2.2,5.918C260.974,84.182,261.027,85.229,261.393,86.381Z" transform="translate(-191.181 -45.324)" fill="#ff6e61" opacity="0.6"/>
          <path id="Path_2761" data-name="Path 2761" d="M266.712,102.057c-4.189,1.676-4.556.681-6.546-.314-.628-.314-1.152.628-.524.943,2.2,1.152,4.713.786,7.07.471C267.392,103.052,267.392,102,266.712,102.057Z" transform="translate(-190.32 -57.02)" fill="#ff6e61" opacity="0.6"/>
          <path id="Path_2762" data-name="Path 2762" d="M278.329,73.318a3.443,3.443,0,0,1,3.037.157c.628.314,1.152-.628.524-.943a5.17,5.17,0,0,0-4.137-.157C277.125,72.689,277.7,73.58,278.329,73.318Z" transform="translate(-198.953 -42.891)" fill="#18183e"/>
          <path id="Path_2763" data-name="Path 2763" d="M255.789,72.66a3.927,3.927,0,0,1,2.566.1c.628.209.943-.838.262-1.047a4.957,4.957,0,0,0-3.142-.1C254.847,71.822,255.109,72.869,255.789,72.66Z" transform="translate(-188.301 -42.6)" fill="#18183e"/>
        </g>
      </g>
    </g>
  </g>
</svg>
