<svg id="invite_freinds" data-name="invite freinds" xmlns="http://www.w3.org/2000/svg" width="30.414" height="22.739" viewBox="0 0 30.414 22.739">
  <g id="_Icons_Close_Copy_7" data-name="_Icons / Close Copy 7" transform="translate(0 0)">
    <path id="Combined_Shape" data-name="Combined Shape" d="M2.369,22.739A2.369,2.369,0,0,1,0,20.37c0-4.974,4.453-9,9.948-9s9.948,4.027,9.948,9a2.368,2.368,0,0,1-2.368,2.369Zm2.843-18A4.737,4.737,0,1,1,9.948,9.474,4.737,4.737,0,0,1,5.212,4.738Z" fill="#fff"/>
  </g>
  <g id="_Icons_Close_Copy_8" data-name="_Icons / Close Copy 8" transform="translate(13.359 3.411)">
    <path id="Combined_Shape-2" data-name="Combined Shape" d="M2.03,19.329a2.039,2.039,0,0,1-1.436-.589A2.007,2.007,0,0,1,0,17.315c0-4.228,3.817-7.651,8.527-7.651s8.528,3.423,8.528,7.651a2.022,2.022,0,0,1-2.03,2.014Zm2.436-15.3a4.061,4.061,0,1,1,4.06,4.027A4.044,4.044,0,0,1,4.467,4.027Z" fill="rgba(255,255,255,0.5)"/>
  </g>
</svg>
