<svg id="_Icons_Close_Copy_4" data-name="_Icons / Close Copy 4" xmlns="http://www.w3.org/2000/svg" width="27.427" height="21.241" viewBox="0 0 27.427 21.241">
  <path id="Combined_Shape" data-name="Combined Shape" d="M5.963,19.452V1.788a1.789,1.789,0,0,1,3.577,0V19.452a1.789,1.789,0,1,1-3.577,0Zm11.924-3.54V5.329a1.789,1.789,0,1,1,3.577,0V15.912a1.789,1.789,0,0,1-3.577,0Zm-5.962-1.77V7.1a1.788,1.788,0,1,1,3.577,0v7.043a1.788,1.788,0,1,1-3.577,0Zm11.924-2.36V9.459a1.789,1.789,0,1,1,3.578,0v2.323a1.789,1.789,0,0,1-3.578,0ZM0,11.782V9.459a1.789,1.789,0,1,1,3.578,0v2.323a1.789,1.789,0,0,1-3.578,0Z" transform="translate(0)" fill="#b7b4b4"/>
</svg>
