<svg id="mysubscription" xmlns="http://www.w3.org/2000/svg" width="11.667" height="20" viewBox="0 0 11.667 20">
  <path id="_10_Dollar" data-name="10 Dollar" d="M11.667,13.254A4.512,4.512,0,0,0,8.438,9.042L4.188,7.767a1.2,1.2,0,0,1-.833-1.25,1.25,1.25,0,0,1,1.229-1.1h2.5a2.917,2.917,0,0,1,1.688.538,1.25,1.25,0,0,0,1.646-.121L11,5.25a1.25,1.25,0,0,0-.108-1.871A6.217,6.217,0,0,0,7.5,2.083V1.25A1.25,1.25,0,0,0,6.25,0H5.417a1.25,1.25,0,0,0-1.25,1.25v.862A4.642,4.642,0,0,0,0,6.746a4.512,4.512,0,0,0,3.229,4.212L7.5,12.233a1.2,1.2,0,0,1,.75,1.637,1.25,1.25,0,0,1-1.167.712h-2.5a2.917,2.917,0,0,1-1.667-.537,1.25,1.25,0,0,0-1.667.121l-.583.583a1.25,1.25,0,0,0,.113,1.871,6.2,6.2,0,0,0,3.387,1.3v.833A1.25,1.25,0,0,0,5.417,20H6.25A1.25,1.25,0,0,0,7.5,18.75v-.862A4.638,4.638,0,0,0,11.667,13.254Z" fill="#fff"/>
</svg>
