<svg id="notification" xmlns="http://www.w3.org/2000/svg" width="18.134" height="22.267" viewBox="0 0 18.134 22.267">
  <path id="Combined_Shape" data-name="Combined Shape" d="M6.668,20.894A.928.928,0,0,1,7.462,19.5h3.211a.928.928,0,0,1,.794,1.392,2.784,2.784,0,0,1-4.8,0ZM16.739,18.11H1.392A1.392,1.392,0,0,1,.218,15.971L1.465,14a1.4,1.4,0,0,0,.214-.655l.465-6.841A6.96,6.96,0,0,1,9.485.011,7.064,7.064,0,0,1,16,6.685l.436,6.65a1.391,1.391,0,0,0,.214.654l1.263,1.982a1.392,1.392,0,0,1-1.173,2.139Z" transform="translate(0 0)" fill="#fff"/>
</svg>
