<svg xmlns="http://www.w3.org/2000/svg" width="22.855" height="22.855" viewBox="0 0 22.855 22.855">
  <path id="playlist" d="M19.507,3.348a11.425,11.425,0,1,0,0,16.157,11.419,11.419,0,0,0,0-16.157ZM7.615,6.675h7.627a.938.938,0,1,1,0,1.877H7.615a.938.938,0,1,1,0-1.877Zm3.813,9.5H7.615a.938.938,0,0,1,0-1.877h3.813a.938.938,0,0,1,0,1.877Zm.953-3.813H7.615a.938.938,0,1,1,0-1.877h4.767a.938.938,0,1,1,0,1.877Zm5.353,3.608L15.351,17.88a.94.94,0,0,1-1.525-.733V13.334a.939.939,0,0,1,1.525-.733l2.383,1.907a.939.939,0,0,1,0,1.466Z" transform="translate(0 0)" fill="#b7b4b4"/>
</svg>
