<svg id="privacy_policy" data-name="privacy policy" xmlns="http://www.w3.org/2000/svg" width="17.055" height="22.739" viewBox="0 0 17.055 22.739">
  <path id="_4_lock" data-name="4 lock" d="M14.686,22.739H2.369A2.369,2.369,0,0,1,0,20.37V12.317A2.372,2.372,0,0,1,2.369,9.948V6.159a6.159,6.159,0,1,1,12.317,0V9.948a2.372,2.372,0,0,1,2.369,2.369V20.37A2.372,2.372,0,0,1,14.686,22.739ZM8.527,14.449a1.9,1.9,0,1,0,1.9,1.9A1.9,1.9,0,0,0,8.527,14.449Zm0-12.08a3.794,3.794,0,0,0-3.789,3.79V9.948h7.579V6.159A3.794,3.794,0,0,0,8.527,2.369Z" transform="translate(0 0)" fill="#fff"/>
</svg>
