<svg id="reset_passowrd" data-name="reset passowrd" xmlns="http://www.w3.org/2000/svg" width="15" height="20" viewBox="0 0 15 20">
  <path id="_4_lock" data-name="4 lock" d="M12.917,20H2.084A2.083,2.083,0,0,1,0,17.916V10.833A2.086,2.086,0,0,1,2.084,8.75V5.417a5.417,5.417,0,1,1,10.833,0V8.75A2.086,2.086,0,0,1,15,10.833v7.083A2.086,2.086,0,0,1,12.917,20ZM7.5,12.708a1.667,1.667,0,1,0,1.667,1.667A1.669,1.669,0,0,0,7.5,12.708Zm0-10.625A3.337,3.337,0,0,0,4.167,5.417V8.75h6.666V5.417A3.337,3.337,0,0,0,7.5,2.083Z" transform="translate(0 0)" fill="#fff"/>
</svg>
