<svg xmlns="http://www.w3.org/2000/svg" width="96.333" height="157.752" viewBox="0 0 96.333 157.752">
  <g id="Shala-Logo_Ar_v3" data-name="Shala-Logo_Ar v3" transform="translate(0.002 0)">
    <g id="Group_276" data-name="Group 276" transform="translate(16.061 126.615)">
      <path id="Path_2709" data-name="Path 2709" d="M21.522,149.273a11.131,11.131,0,0,1-5.222-1.084l.394-2.66a18.211,18.211,0,0,0,2.266.887,7.964,7.964,0,0,0,2.463.394,3.523,3.523,0,0,0,1.872-.394,1.538,1.538,0,0,0,.69-1.281,1.4,1.4,0,0,0-.591-1.182,9.042,9.042,0,0,0-2.365-1.084,2.16,2.16,0,0,1-.788-.3,6.9,6.9,0,0,1-2.956-1.774,3.944,3.944,0,0,1-.887-2.66,3.45,3.45,0,0,1,1.478-3.055A7.01,7.01,0,0,1,21.916,134a11,11,0,0,1,4.927,1.084l-.887,2.463a9.014,9.014,0,0,0-4.04-.985,2.819,2.819,0,0,0-1.675.394,1.132,1.132,0,0,0-.591,1.084,1.236,1.236,0,0,0,.591,1.084,10.6,10.6,0,0,0,2.266.985.982.982,0,0,1,.394.1c.2.1.394.1.493.2a6.9,6.9,0,0,1,2.956,1.774,4,4,0,0,1,.985,2.66,4.2,4.2,0,0,1-1.478,3.449C24.872,149.076,23.394,149.273,21.522,149.273Z" transform="translate(-16.3 -128.581)" fill="#4b4b4b"/>
      <path id="Path_2710" data-name="Path 2710" d="M30.3,148.995V128.7l3.547-.2v7.39a5.917,5.917,0,0,1,4.73-2.069A5.223,5.223,0,0,1,42.42,135.2a6.178,6.178,0,0,1,1.379,4.335V148.9H40.252V139.93a4.837,4.837,0,0,0-.591-2.66,2.229,2.229,0,0,0-1.971-.887,3.643,3.643,0,0,0-2.069.591,3.585,3.585,0,0,0-1.379,1.577,14.03,14.03,0,0,0-.3,3.252V148.9H30.3S30.3,148.995,30.3,148.995Z" transform="translate(-16.505 -128.5)" fill="#4b4b4b"/>
      <path id="Path_2711" data-name="Path 2711" d="M51.331,149.371a4.8,4.8,0,0,1-3.35-1.182,4.765,4.765,0,0,1,.2-6.7,8.811,8.811,0,0,1,4.533-1.379c.3,0,.591-.1.887-.1s.69-.1,1.084-.1.69-.1.985-.1v-.788a2.772,2.772,0,0,0-.591-1.971,2.668,2.668,0,0,0-1.872-.591,12.541,12.541,0,0,0-4.434.985s-.2-.394-.493-1.182-.394-1.182-.493-1.182A13.594,13.594,0,0,1,53.4,134c1.971,0,3.449.394,4.335,1.281a5.751,5.751,0,0,1,1.379,4.237v9.656h-2.66l-.3-.887-.3-.887a7.542,7.542,0,0,1-2.168,1.577A5.664,5.664,0,0,1,51.331,149.371Zm.985-2.562a3.972,3.972,0,0,0,2.168-.591,3.367,3.367,0,0,0,1.281-1.379v-2.857a3.15,3.15,0,0,0-.69.1,1.705,1.705,0,0,0-.69.1,7.7,7.7,0,0,0-3.153.788,2.086,2.086,0,0,0-.985,1.971,2.005,2.005,0,0,0,.591,1.478A2.416,2.416,0,0,0,52.316,146.809Z" transform="translate(-16.746 -128.581)" fill="#4b4b4b"/>
      <path id="Path_2712" data-name="Path 2712" d="M68.224,149.192a6.673,6.673,0,0,1-2.562-.394,2.72,2.72,0,0,1-1.577-1.182,4.005,4.005,0,0,1-.788-1.872,10.437,10.437,0,0,1-.2-2.66V128.7l3.547-.2v14.583a5.213,5.213,0,0,0,.493,2.66c.3.493.887.69,1.872.69a12.579,12.579,0,0,0,1.675-.2l.1,2.562a.763.763,0,0,0-.3.1c-.2,0-.394.1-.591.1s-.394.1-.69.1A4.526,4.526,0,0,1,68.224,149.192Z" transform="translate(-16.986 -128.5)" fill="#4b4b4b"/>
      <path id="Path_2713" data-name="Path 2713" d="M76.531,149.371a4.8,4.8,0,0,1-3.35-1.182,4.765,4.765,0,0,1,.2-6.7,8.811,8.811,0,0,1,4.533-1.379c.3,0,.591-.1.887-.1s.69-.1,1.084-.1.69-.1.985-.1v-.788a2.773,2.773,0,0,0-.591-1.971,2.668,2.668,0,0,0-1.872-.591,12.541,12.541,0,0,0-4.434.985s-.2-.394-.493-1.182-.394-1.182-.493-1.182A13.594,13.594,0,0,1,78.6,134c1.971,0,3.449.394,4.335,1.281a5.751,5.751,0,0,1,1.379,4.237v9.656H81.852l-.3-.887-.3-.887a7.542,7.542,0,0,1-2.168,1.577A6.673,6.673,0,0,1,76.531,149.371Zm.887-2.562a3.972,3.972,0,0,0,2.168-.591,3.367,3.367,0,0,0,1.281-1.379v-2.857a3.149,3.149,0,0,0-.69.1,1.705,1.705,0,0,0-.69.1,7.7,7.7,0,0,0-3.153.788,2.086,2.086,0,0,0-.985,1.971,2.005,2.005,0,0,0,.591,1.478A2.659,2.659,0,0,0,77.418,146.809Z" transform="translate(-17.115 -128.581)" fill="#4b4b4b"/>
    </g>
    <g id="Group_277" data-name="Group 277" transform="translate(-0.002 0)">
      <path id="Path_2714" data-name="Path 2714" d="M41.694,52.7c-1.182,5.025.3,11.134,3.843,12.021s7.784-3.646,9.065-8.769-.887-8.769-4.434-9.656S42.975,47.578,41.694,52.7Z" transform="translate(-0.604 -0.676)" fill="#73a72e"/>
      <path id="Path_2715" data-name="Path 2715" d="M32.149,83.261c12.514,10.05,39.118,4.828,40.1-20.3.887-23.944-19.411-27.983-18.623-47.3-2.562,14.09-.394,18.918,4.434,27.294,5.025,8.572,6.208,21.579-3.449,28.082-8.08,5.419-20.988,1.084-20.988-11.824,0-12.218,7.094-22.367,11.331-33.3C50.969,10.445,45.943,0,45.943,0c.985,14.386-11.824,27.2-18.032,39.807C19.142,57.642,19.733,73.112,32.149,83.261Z" transform="translate(-0.321 0)" fill="#73a72e"/>
      <path id="Path_2716" data-name="Path 2716" d="M32.713,99.037C24.535,94.8,14.977,92.731,6.306,97.657,3.646,99.135-.1,102.19,0,106.131c.2,4.335,4.828,5.813,7.686,6.5,14.583,3.449,35.078-2.66,47.1,4.04C51.631,109.875,38.034,101.7,32.713,99.037Z" transform="translate(0.002 -1.39)" fill="#73a72e"/>
      <path id="Path_2717" data-name="Path 2717" d="M93.381,99.344c-6.9-5.518-17.243-4.138-24.436-1.182-4.631,1.971-13.7,6.208-17.145,12.612,10.543-4.828,26.21,1.577,38.527.788C98.308,111.069,99.1,103.876,93.381,99.344Z" transform="translate(-0.758 -1.402)" fill="#73a72e"/>
    </g>
    <g id="Group_278" data-name="Group 278" transform="translate(34.092 116.466)">
      <path id="Path_2718" data-name="Path 2718" d="M42.483,118.89a2.212,2.212,0,0,0-.1.985c0,.3.1.887.1,1.577a10.212,10.212,0,0,1,.1,1.577,9.438,9.438,0,0,1-.3,2.168,9.162,9.162,0,0,1-.591,1.774,55.021,55.021,0,0,0-3.153-4.927,18.417,18.417,0,0,0-3.35-3.449,6.034,6.034,0,0,1-.394.591,3.046,3.046,0,0,0-.2.788,1.593,1.593,0,0,0,.394.985,7.772,7.772,0,0,0,1.281,1.281l.493-.394a11.677,11.677,0,0,1,2.266,2.562c.69,1.084,1.478,2.168,2.168,3.35a3.6,3.6,0,0,1-1.084,1.478,2.926,2.926,0,0,1-1.774.493v1.281h2.266c.591,0,1.084,0,1.379-.3a1.476,1.476,0,0,0,.493-1.182,3.046,3.046,0,0,0-.2-.788,10.225,10.225,0,0,1-.394-.985,7.794,7.794,0,0,0,.493-1.281c.1-.3.2-.788.394-1.478a11.03,11.03,0,0,0,.3-2.857,5.1,5.1,0,0,1,.788-2.759l-.887-1.182C42.68,118.594,42.483,118.791,42.483,118.89Zm-.493,10.543q0,.3-.591.3h-.788c.2-.3.394-.493.493-.69.2-.2.3-.394.493-.591a1.36,1.36,0,0,1,.3.394A1.25,1.25,0,0,1,41.99,129.433Z" transform="translate(-34.6 -118.2)" fill="#4b4c4c"/>
      <rect id="Rectangle_61" data-name="Rectangle 61" width="1.379" height="1.379" transform="matrix(0.504, -0.864, 0.864, 0.504, 19.475, 4.223)" fill="#4b4c4c"/>
      <path id="Path_2719" data-name="Path 2719" d="M55.771,124.085l1.182.887.69-1.084L56.46,123.1l-.788,1.084-1.084-.69-.788,1.084,1.182.69Z" transform="translate(-34.882 -118.272)" fill="#4b4c4c"/>
      <path id="Path_2720" data-name="Path 2720" d="M49.253,131.23h.3c.1,0,.493-.1,1.182-.2a2.235,2.235,0,0,0,1.577-1.084l.3.591a1.36,1.36,0,0,0,.3.394.833.833,0,0,0,.591.2h.788a1.561,1.561,0,0,0,1.182-.493,3.1,3.1,0,0,0,.887-1.182c.3.3.591.493.788.69a2.319,2.319,0,0,0,.788.2,1.39,1.39,0,0,0,1.182-.788,3.865,3.865,0,0,0,.394-1.774,1.827,1.827,0,0,0-.2-.69c-.2-.2-.3-.394-.493-.493l-.394,1.379a1.219,1.219,0,0,0,.3.2q.3.148.3.3c0,.1-.1.2-.394.2-.591,0-1.084-.1-1.281-.394a1.467,1.467,0,0,1-.394-.887h-.2a3.984,3.984,0,0,1-.985,1.675,2.005,2.005,0,0,1-1.478.591,4.268,4.268,0,0,0-.493-.1c-.2-.1-.394-.1-.493-.3a.542.542,0,0,1-.3-.493c0-.2-.1-.394-.1-.591h-.1a3.346,3.346,0,0,1-1.182,1.182,4.846,4.846,0,0,1-1.971.3H48.563a.747.747,0,0,1-.394-.2,2.256,2.256,0,0,1-.493-1.379l-.788-8.277a4.171,4.171,0,0,1-.493.69,1.064,1.064,0,0,0-.3.69v.591l.788,7.193a1.9,1.9,0,0,0,.591,1.675A5.282,5.282,0,0,0,49.253,131.23Z" transform="translate(-34.769 -118.223)" fill="#4b4c4c"/>
    </g>
    <g id="Group_279" data-name="Group 279" transform="translate(45.818 151.643)">
      <path id="Path_2721" data-name="Path 2721" d="M47.485,159.221a2.66,2.66,0,0,1-.985-2.168,2.724,2.724,0,0,1,.985-2.266,3.684,3.684,0,0,1,2.562-.887,3.521,3.521,0,0,1,2.562.887,2.853,2.853,0,0,1,.985,2.266,2.537,2.537,0,0,1-.985,2.168,3.634,3.634,0,0,1-2.562.788A3.485,3.485,0,0,1,47.485,159.221Zm4.73-.3A2.285,2.285,0,0,0,53,156.955a2.751,2.751,0,0,0-.788-1.971,3.246,3.246,0,0,0-2.168-.788,3.067,3.067,0,0,0-2.168.788,2.4,2.4,0,0,0-.788,1.971,2.751,2.751,0,0,0,.788,1.971,3.185,3.185,0,0,0,2.168.69A3.024,3.024,0,0,0,52.215,158.925Z" transform="translate(-46.5 -153.9)" fill="#4b4c4c"/>
      <path id="Path_2722" data-name="Path 2722" d="M55,160.011V154h.788l4.828,5.518V154h.493v6.011h-.788l-4.828-5.419v5.419Z" transform="translate(-46.625 -153.901)" fill="#4b4c4c"/>
      <path id="Path_2723" data-name="Path 2723" d="M63,154h.493v5.616h4.335v.394H63Z" transform="translate(-46.742 -153.901)" fill="#4b4c4c"/>
      <path id="Path_2724" data-name="Path 2724" d="M68.8,160.011V154h.493v6.011Z" transform="translate(-46.827 -153.901)" fill="#4b4c4c"/>
      <path id="Path_2725" data-name="Path 2725" d="M71.1,160.011V154h.788l4.828,5.518V154h.493v6.011h-.788l-4.828-5.419v5.419Z" transform="translate(-46.861 -153.901)" fill="#4b4c4c"/>
      <path id="Path_2726" data-name="Path 2726" d="M79.1,160.011V154h5.222v.394H79.691v2.266h4.237v.394H79.691v2.562h4.631v.394Z" transform="translate(-46.978 -153.901)" fill="#4b4c4c"/>
    </g>
  </g>
</svg>
