<svg xmlns="http://www.w3.org/2000/svg" width="272.999" height="332.655" viewBox="0 0 272.999 332.655">
  <g id="Asset_2" data-name="Asset 2" transform="translate(0.05 0.025)">
    <g id="Layer_2" data-name="Layer 2">
      <g id="OBJECTS">
        <g id="Group_261" data-name="Group 261" opacity="0.31">
          <path id="Path_2556" data-name="Path 2556" d="M234,187.07c-12.29-13.51-25-27.86-29.09-45.66-7.13-31.32,14.39-65.53,2-95.18a44.78,44.78,0,0,0-71.32-16C124.23,40.47,118.94,55.66,113,69.81a308,308,0,0,1-21.78,42.27c-4.94,8-10.38,15.91-17.76,21.74-8.91,7-20,10.55-30.14,15.71-22,11.22-40.19,32.14-43,56.68S11,255.68,31,270.46,76.48,291,101.32,290.82c20.21-.13,40.63-4,58.61-13.28,6.82-3.5,13.32-7.78,20.63-10.12,8.06-2.58,16.73-2.67,24.91-4.9a49.08,49.08,0,0,0,29.53-72" fill="#d8d3cf"/>
          <path id="Path_2557" data-name="Path 2557" d="M77.87,48.28C69.48,36.61,69.73,19.45,78.46,8c3.75-4.91,9.7-9,15.78-7.82,3.91.73,7.16,3.52,9.52,6.72a28.3,28.3,0,0,1,2.85,28A28.27,28.27,0,0,1,83.43,51" fill="#d8d3cf"/>
          <path id="Path_2558" data-name="Path 2558" d="M258.71,191.39a34.62,34.62,0,0,1-11.79-23.58,9,9,0,0,1,.91-5.38c1.79-2.88,5.88-3.27,9.19-2.5,9.65,2.24,16.82,12.25,15.84,22.1-.51,5.14-5,10.91-9.81,9.09" fill="#d8d3cf"/>
        </g>
        <path id="Path_2559" data-name="Path 2559" d="M34,300.65C20.89,293.7,13.81,285.09,9.18,271c-1.1-3.33-1.7-7.51.87-9.9,2.74-2.56,7.21-1.32,10.52.46A47.39,47.39,0,0,1,36.12,275c5.3,7.12,9.75,16.55,18.49,18.11a3.63,3.63,0,0,0,2.37-.2c2.14-1.18.75-4.4-.6-6.44A29.71,29.71,0,0,1,51.7,274a4.6,4.6,0,0,1,.15-2.39,3.8,3.8,0,0,1,2.8-1.93c4.18-.9,8.26,1.71,11.59,4.4,8.47,6.85,20.25,18.22,26.09,27.43" fill="#b2cdc1"/>
        <path id="Path_2560" data-name="Path 2560" d="M120.45,223.11a61.24,61.24,0,0,1-30.51-21.18c-3.65-4.76-6.66-10.29-7-16.28-.21-3.36,1.08-7.49,4.39-8.1,2.4-.45,4.64,1.2,6.46,2.81a94.81,94.81,0,0,1,27.64,43" fill="#b2cdc1"/>
        <path id="Path_2561" data-name="Path 2561" d="M50,239c-6.19-1.27-12.46-2.58-18.09-5.46S21.3,226,19.44,220c-.74-2.39-.91-5.18.54-7.23,1.82-2.57,5.47-3,8.59-2.59a26.72,26.72,0,0,1,16.77,10.05A39.38,39.38,0,0,1,53,238.46" fill="#b2cdc1"/>
        <path id="Path_2562" data-name="Path 2562" d="M59.72,242.71A39.671,39.671,0,0,1,56,231.88c-1.07-5.08-1.43-10.82,1.61-15a5.24,5.24,0,0,1,3.81-2.43,5.27,5.27,0,0,1,2.65.78,11.87,11.87,0,0,1,6,9.21c.28,3.48-1,6.93-2.76,10s-3.95,5.78-5.72,8.8" fill="#b2cdc1"/>
        <path id="Path_2563" data-name="Path 2563" d="M69,252.14a56.639,56.639,0,0,0-12-1.88,18.73,18.73,0,0,0-11.44,3.29,3,3,0,0,0-1.32,1.73,2.65,2.65,0,0,0,.66,2,8.48,8.48,0,0,0,6.61,3.05,19.361,19.361,0,0,0,7.32-1.61c3.17-1.23,6.4-2.91,8.13-5.85" fill="#b2cdc1"/>
        <path id="Path_2564" data-name="Path 2564" d="M83.23,262.59a48,48,0,0,1-2.86-11.14,16.21,16.21,0,0,1,2.54-11,2.4,2.4,0,0,1,1.11-1,2.27,2.27,0,0,1,1.7.35,9.74,9.74,0,0,1,4.1,5.91,17.92,17.92,0,0,1-4.33,17.17" fill="#b2cdc1"/>
        <path id="Path_2565" data-name="Path 2565" d="M28.27,217.49c1.89,7.74,9.57,12.51,15.56,17,6.63,4.94,13.4,9.7,20.14,14.51,13.42,9.56,26.82,19.33,38.52,31a126.24,126.24,0,0,1,17.38,21.32c.49.77,1.73.05,1.24-.73-8.7-13.59-20.26-25-32.74-35.11-12.68-10.29-26.26-19.39-39.45-29C45.15,233.7,41.35,231,37.74,228s-7-6.3-8.09-10.9c-.22-.89-1.6-.51-1.38.39Z" fill="#b2cdc1"/>
        <g id="Group_262" data-name="Group 262">
          <path id="Path_2566" data-name="Path 2566" d="M55.21,284.54a16.68,16.68,0,0,1,10.33-11c-3.19-2.48-7-4.69-10.89-3.85a3.8,3.8,0,0,0-2.8,1.93A4.6,4.6,0,0,0,51.7,274a29.88,29.88,0,0,0,3.51,10.54Z" fill="#b2cdc1"/>
          <path id="Path_2567" data-name="Path 2567" d="M33.36,295.73a106.109,106.109,0,0,1-13.07-17.62c-2.35-4.18-4.95-9.58-3.34-14.47a8.25,8.25,0,0,1,1.66-3c-3-1.19-6.33-1.62-8.56.46-2.57,2.39-2,6.57-.87,9.9,4.63,14,11.71,22.66,24.77,29.61l3.85.06C36.25,299.06,34.79,297.35,33.36,295.73Z" fill="#b2cdc1"/>
          <path id="Path_2568" data-name="Path 2568" d="M113.12,207.48c1.54,2.26,3.2,4.43,4.89,6.58a95.11,95.11,0,0,0-11.32-19.63C106.05,197.83,111.88,205.66,113.12,207.48Z" fill="#b2cdc1"/>
          <path id="Path_2569" data-name="Path 2569" d="M90.33,195.1a12.49,12.49,0,0,1,5.35-13c-.63-.59-1.27-1.18-1.92-1.76-1.82-1.61-4.06-3.26-6.46-2.81-3.31.61-4.6,4.74-4.39,8.1.37,6,3.38,11.52,7,16.28a59.3,59.3,0,0,0,6.12,6.84,36.38,36.38,0,0,1-5.7-13.65Z" fill="#b2cdc1"/>
          <path id="Path_2570" data-name="Path 2570" d="M46,237.8c-9-2.57-18.23-13-20.28-22.12a18.2,18.2,0,0,1-.38-5.62A7.07,7.07,0,0,0,20,212.72c-1.45,2.05-1.28,4.84-.54,7.23,1.86,6,6.86,10.7,12.48,13.57S43.82,237.71,50,239l3-.52a5.821,5.821,0,0,0-.17-.91A10.13,10.13,0,0,1,46,237.8Z" fill="#b2cdc1"/>
          <path id="Path_2571" data-name="Path 2571" d="M70,224.42a11.87,11.87,0,0,0-6-9.21,9,9,0,0,0-1-.46c2.43,6.89,3.73,14.54-.26,20.93a4.55,4.55,0,0,1-5.21,2.11,32.39,32.39,0,0,0,2.11,4.92l1.83.47c1.77-3,4-5.77,5.72-8.8S70.31,227.9,70,224.42Z" fill="#b2cdc1"/>
          <path id="Path_2572" data-name="Path 2572" d="M50.78,256.05a10.53,10.53,0,0,1-3.17-3.73,14.121,14.121,0,0,0-2,1.23,3,3,0,0,0-1.32,1.73,2.65,2.65,0,0,0,.66,2,8.48,8.48,0,0,0,6.61,3.05,17.66,17.66,0,0,0,6.24-1.21,16.39,16.39,0,0,1-7.02-3.07Z" fill="#b2cdc1"/>
          <path id="Path_2573" data-name="Path 2573" d="M83.78,244.74a11.49,11.49,0,0,1,5.74.1,9.16,9.16,0,0,0-3.8-5,2.27,2.27,0,0,0-1.7-.35,2.4,2.4,0,0,0-1.11,1,13.9,13.9,0,0,0-2.34,5.73,9.69,9.69,0,0,1,3.21-1.48Z" fill="#b2cdc1"/>
        </g>
        <path id="Path_2574" data-name="Path 2574" d="M217.85,300.65C230.9,293.7,238,285.09,242.62,271c1.1-3.33,1.7-7.51-.87-9.9-2.74-2.56-7.21-1.32-10.52.46A47.39,47.39,0,0,0,215.68,275c-5.3,7.12-9.75,16.55-18.49,18.11a3.62,3.62,0,0,1-2.37-.2c-2.14-1.18-.75-4.4.6-6.44A29.71,29.71,0,0,0,200.1,274a4.6,4.6,0,0,0-.15-2.39,3.8,3.8,0,0,0-2.8-1.93c-4.18-.9-8.26,1.71-11.59,4.4-8.48,6.85-20.25,18.22-26.09,27.43" fill="#b2cdc1"/>
        <path id="Path_2575" data-name="Path 2575" d="M145.67,195.85a33.6,33.6,0,0,0,14.22-14.63A16.89,16.89,0,0,0,162,171.7c-.24-1.84-1.38-3.92-3.23-3.91-1.33,0-2.37,1.14-3.18,2.2a52.08,52.08,0,0,0-10.38,26.08" fill="#b2cdc1"/>
        <path id="Path_2576" data-name="Path 2576" d="M201.79,239c6.19-1.27,12.46-2.58,18.09-5.46S230.5,226,232.36,220c.74-2.39.91-5.18-.54-7.23-1.82-2.57-5.47-3-8.59-2.59a26.72,26.72,0,0,0-16.77,10.05,39.38,39.38,0,0,0-7.63,18.28" fill="#b2cdc1"/>
        <path id="Path_2577" data-name="Path 2577" d="M192.08,242.71a39.671,39.671,0,0,0,3.71-10.83c1.07-5.08,1.43-10.82-1.62-15a5.21,5.21,0,0,0-3.8-2.43,5.27,5.27,0,0,0-2.65.78,11.87,11.87,0,0,0-5.95,9.21c-.29,3.48,1,6.93,2.76,10s3.95,5.78,5.72,8.8" fill="#b2cdc1"/>
        <path id="Path_2578" data-name="Path 2578" d="M182.79,252.14a56.538,56.538,0,0,1,12-1.88,18.73,18.73,0,0,1,11.44,3.29,3,3,0,0,1,1.32,1.73,2.69,2.69,0,0,1-.66,2,8.48,8.48,0,0,1-6.61,3.05,19.36,19.36,0,0,1-7.32-1.61c-3.17-1.23-6.4-2.91-8.13-5.85" fill="#b2cdc1"/>
        <path id="Path_2579" data-name="Path 2579" d="M168.57,262.59a48,48,0,0,0,2.86-11.14,16.21,16.21,0,0,0-2.54-11,2.45,2.45,0,0,0-1.11-1,2.26,2.26,0,0,0-1.7.35,9.74,9.74,0,0,0-4.1,5.91,17.92,17.92,0,0,0,4.33,17.17" fill="#b2cdc1"/>
        <path id="Path_2580" data-name="Path 2580" d="M222.15,217.1c-1,4.07-3.78,7.21-6.87,9.88s-6.49,5.12-9.81,7.57c-6.61,4.88-13.33,9.59-20,14.36-13.17,9.42-26.29,19.1-37.72,30.62a127.621,127.621,0,0,0-17.05,21c-.49.78.74,1.5,1.24.73,8.84-13.84,20.71-25.34,33.44-35.58,12.95-10.41,26.8-19.62,40.18-29.46,3.57-2.63,7.22-5.24,10.59-8.14s6.33-6.27,7.39-10.63c.22-.9-1.16-1.28-1.38-.39Z" fill="#b2cdc1"/>
        <g id="Group_263" data-name="Group 263">
          <path id="Path_2581" data-name="Path 2581" d="M148,186.65c-.59,1.38-1.26,2.73-1.94,4.06a52,52,0,0,1,4-11.77C150.77,180.7,148.45,185.54,148,186.65Z" fill="#b2cdc1"/>
        </g>
        <g id="Group_264" data-name="Group 264">
          <path id="Path_2582" data-name="Path 2582" d="M159,177.58a6.87,6.87,0,0,0-4.25-6.44c.28-.38.56-.77.85-1.15.81-1.06,1.85-2.18,3.18-2.2,1.85,0,3,2.07,3.23,3.91a16.89,16.89,0,0,1-2.08,9.52,32.543,32.543,0,0,1-2.58,4.33,20,20,0,0,0,1.65-7.97Z" fill="#b2cdc1"/>
        </g>
        <g id="Group_265" data-name="Group 265">
          <path id="Path_2583" data-name="Path 2583" d="M196.59,284.54a16.68,16.68,0,0,0-10.33-11c3.19-2.48,7-4.69,10.89-3.85a3.8,3.8,0,0,1,2.8,1.93,4.6,4.6,0,0,1,.15,2.39,29.88,29.88,0,0,1-3.51,10.53Z" fill="#b2cdc1"/>
          <path id="Path_2584" data-name="Path 2584" d="M218.44,295.73a106.11,106.11,0,0,0,13.07-17.62c2.35-4.18,5-9.58,3.34-14.47a8.25,8.25,0,0,0-1.66-3c3-1.19,6.33-1.62,8.56.46,2.57,2.39,2,6.57.87,9.9-4.63,14-11.72,22.66-24.77,29.61l-3.85.06C215.54,299.06,217,297.35,218.44,295.73Z" fill="#b2cdc1"/>
          <path id="Path_2585" data-name="Path 2585" d="M205.83,237.8c9-2.57,18.23-13,20.28-22.12a18.83,18.83,0,0,0,.38-5.62,7.07,7.07,0,0,1,5.33,2.66c1.45,2.05,1.28,4.84.54,7.23-1.86,6-6.86,10.7-12.48,13.57S208,237.71,201.79,239l-3-.52a4.854,4.854,0,0,1,.17-.91,10.13,10.13,0,0,0,6.87.23Z" fill="#b2cdc1"/>
          <path id="Path_2586" data-name="Path 2586" d="M181.77,224.42a11.87,11.87,0,0,1,5.95-9.21,9,9,0,0,1,1-.46c-2.43,6.89-3.73,14.54.26,20.93a4.55,4.55,0,0,0,5.21,2.11,32.39,32.39,0,0,1-2.11,4.92l-1.83.47c-1.77-3-4-5.77-5.72-8.8S181.48,227.9,181.77,224.42Z" fill="#b2cdc1"/>
          <path id="Path_2587" data-name="Path 2587" d="M201,256.05a10.53,10.53,0,0,0,3.17-3.73,14.119,14.119,0,0,1,2,1.23,3,3,0,0,1,1.32,1.73,2.69,2.69,0,0,1-.66,2,8.48,8.48,0,0,1-6.61,3.05,17.62,17.62,0,0,1-6.24-1.21A16.39,16.39,0,0,0,201,256.05Z" fill="#b2cdc1"/>
          <path id="Path_2588" data-name="Path 2588" d="M168,244.74a11.49,11.49,0,0,0-5.74.1,9.16,9.16,0,0,1,3.8-5,2.26,2.26,0,0,1,1.7-.35,2.45,2.45,0,0,1,1.11,1,13.9,13.9,0,0,1,2.34,5.73,9.79,9.79,0,0,0-3.21-1.48Z" fill="#b2cdc1"/>
        </g>
        <g id="Group_266" data-name="Group 266" opacity="0.51">
          <path id="Path_2589" data-name="Path 2589" d="M58.06,199.32a2.22,2.22,0,1,0-2.22,2.22,2.22,2.22,0,0,0,2.22-2.22Z" fill="#b2cdc1"/>
          <circle id="Ellipse_39" data-name="Ellipse 39" cx="3.17" cy="3.17" r="3.17" transform="translate(4.12 245.97)" fill="#b2cdc1"/>
          <circle id="Ellipse_40" data-name="Ellipse 40" cx="5.71" cy="5.71" r="5.71" transform="translate(36.49 120.63)" fill="#b2cdc1"/>
          <circle id="Ellipse_41" data-name="Ellipse 41" cx="2.54" cy="2.54" r="2.54" transform="translate(157.06 138.08)" fill="#b2cdc1"/>
          <path id="Path_2590" data-name="Path 2590" d="M249.08,244.38a4.11,4.11,0,1,0-1.2,2.923A4.13,4.13,0,0,0,249.08,244.38Z" fill="#b2cdc1"/>
          <path id="Path_2591" data-name="Path 2591" d="M201.17,193.29a1.59,1.59,0,1,0-1.59,1.59A1.59,1.59,0,0,0,201.17,193.29Z" fill="#b2cdc1"/>
          <path id="Path_2592" data-name="Path 2592" d="M131,85.09a4.44,4.44,0,1,0-4.44,4.44A4.44,4.44,0,0,0,131,85.09Z" fill="#b2cdc1"/>
        </g>
        <circle id="Ellipse_42" data-name="Ellipse 42" cx="16.14" cy="16.14" r="16.14" transform="translate(1.94 130)" fill="none" stroke="#d8d3cf" stroke-miterlimit="10" stroke-width="1.08"/>
        <path id="Path_2593" data-name="Path 2593" d="M5.17,158.69c-2.87,6.46.63,6,2.43,5.73a5,5,0,0,0,2.11-1.11c8.93-6.86,14.39-17.26,18.58-27.71,1-2.54,2-5.44.83-7.92a2.75,2.75,0,0,0-1.07-1.28c-1.44-.78-3.06.62-4.1,1.88" fill="none" stroke="#d8d3cf" stroke-miterlimit="10" stroke-width="1.08"/>
        <circle id="Ellipse_43" data-name="Ellipse 43" cx="12.13" cy="12.13" r="12.13" transform="translate(203.983 90.463) rotate(-7.59)" fill="none" stroke="#d8d3cf" stroke-miterlimit="10" stroke-width="0.81"/>
        <path id="Path_2594" data-name="Path 2594" d="M208.38,91c-4.8-2.25-4.54.39-4.33,1.74a3.74,3.74,0,0,0,.79,1.61c5,6.81,12.75,11.07,20.53,14.38,1.89.8,4,1.56,5.94.75a2,2,0,0,0,1-.79c.62-1.06-.41-2.31-1.35-3.11" fill="none" stroke="#d8d3cf" stroke-miterlimit="10" stroke-width="0.81"/>
        <path id="Path_2595" data-name="Path 2595" d="M61.11,178.42a2.86,2.86,0,1,0-.838,2.032,2.87,2.87,0,0,0,.838-2.032Z" fill="#d8d3cf"/>
        <path id="Path_2596" data-name="Path 2596" d="M73.3,74.41a5.37,5.37,0,1,0-1.569,3.8,5.38,5.38,0,0,0,1.569-3.8Z" fill="#d8d3cf"/>
        <circle id="Ellipse_44" data-name="Ellipse 44" cx="2.51" cy="2.51" r="2.51" transform="translate(193.8 160.48)" fill="#d8d3cf"/>
        <path id="Path_2597" data-name="Path 2597" d="M179.1,70.11a2.15,2.15,0,1,0-2.1,2.15,2.15,2.15,0,0,0,2.1-2.15Z" fill="#d8d3cf"/>
        <line id="Line_4" data-name="Line 4" x2="218.89" transform="translate(17.96 301.2)" fill="none" stroke="#b2cdc1" stroke-linecap="round" stroke-miterlimit="10" stroke-width="2.05"/>
        <ellipse id="Ellipse_45" data-name="Ellipse 45" cx="68.14" cy="8.61" rx="68.14" ry="8.61" transform="translate(50.71 315.41)" fill="#d8d3cf"/>
        <path id="Path_2598" data-name="Path 2598" d="M104.39,78.11A36.37,36.37,0,0,1,132.7,62.37a13.91,13.91,0,0,1,6.65,1.05c2.52,1.21,4.29,3.55,6,5.79Q152,78,159.25,86.42c1,1.12,2.05,2.3,3.49,2.58a7,7,0,0,0,4.06-.88c7.1-3.08,15.83-5.2,22.17-.76,1.33,4.63-3,9.9-7.8,9.5-3.58-.3-7.6-3-10.34-.69A22.42,22.42,0,0,1,182,102.42c-8.33,2.21-5.4,17.64-13.47,20.67-3.43,1.29-7.39-.45-10.88.66-3.22,1-5.19,4.15-7.34,6.76A32.29,32.29,0,0,1,119,141.21a275.46,275.46,0,0,0-8.23-55" fill="#863c3e"/>
        <path id="Path_2599" data-name="Path 2599" d="M118.12,65.74c-2.21,0-3.83-2-5-3.91-2.65-4.16-5-8.9-4.47-13.81s4.88-9.68,9.76-8.9a10.19,10.19,0,0,1,4.07,1.76,16.579,16.579,0,0,1,7.54,13.64c-.1,5.42-3.79,10.76-9,12.17" fill="#863c3e"/>
        <path id="Path_2600" data-name="Path 2600" d="M121.28,67a13.61,13.61,0,0,0,4.41-16.32,13.85,13.85,0,0,0-6-6.5c-2.16-1.15-6.36-2.13-7,1.3-.1.51.68.72.78.21.72-3.76,6-.92,7.73.43a13.06,13.06,0,0,1,4.3,6.14,12.85,12.85,0,0,1-4.57,14c-.42.31,0,1,.41.7Z" fill="#3e1c1a"/>
        <path id="Path_2601" data-name="Path 2601" d="M118.18,73.85a19.76,19.76,0,0,1,23.34,9.55c2.33,4.41,3.44,9.36,6,13.68a20.2,20.2,0,0,0,10,8.61c4.84,1.9,10.94,1.26,14.9,5.07.38.36.95-.21.57-.58-3.42-3.29-8.33-3.38-12.69-4.46a19.53,19.53,0,0,1-12.24-9.23c-2.59-4.5-3.68-9.69-6.25-14.21a20,20,0,0,0-9.73-8.56A20.37,20.37,0,0,0,118,73.07c-.49.16-.28.94.22.78Z" fill="#3e1c1a"/>
        <path id="Path_2602" data-name="Path 2602" d="M119.23,72.56a25.34,25.34,0,0,1,27.5,5c3.48,3.43,5.34,8.14,8.87,11.51,4,3.79,9.16,3.79,14.21,2.57,5.94-1.43,13-4.66,18.68-.69.42.29.83-.41.4-.7-10.18-7.13-23.16,7.36-32.72-1.75-3.7-3.53-5.6-8.5-9.38-12a26,26,0,0,0-12.56-6.33,25.48,25.48,0,0,0-15.41,1.65c-.47.21-.06.91.41.7Z" fill="#3e1c1a"/>
        <path id="Path_2603" data-name="Path 2603" d="M114.33,78a17,17,0,0,0,3.21,8.61c1.52,2,4,3.45,6.47,2.32a3.46,3.46,0,0,0,2.12-2.81c.05-.52-.76-.52-.81,0a2.9,2.9,0,0,1-2.48,2.35A4.42,4.42,0,0,1,119,87.09c-2.35-2.28-3.54-5.86-3.86-9,0-.51-.86-.52-.81,0Z" fill="#3e1c1a"/>
        <path id="Path_2604" data-name="Path 2604" d="M118.2,65.28a4.28,4.28,0,0,1-5-.17c-2.41-1.6-3.68-4.52-4.31-7.23a15.18,15.18,0,0,1,.75-8.66,16.69,16.69,0,0,1,5-7.77c.82-.64-.33-1.78-1.14-1.14A16.78,16.78,0,0,0,108.75,47a21.57,21.57,0,0,0-1.89,7.69c-.13,4.58,2.25,10.61,6.76,12.48a5.52,5.52,0,0,0,5.4-.5c.83-.6,0-2-.82-1.39Z" fill="#863c3e"/>
        <path id="Path_2605" data-name="Path 2605" d="M134.77,97.94a.81.81,0,0,0,1,.61c1.86-.48,6.07-2,7.92,2.76s-2.13,8.75-4.92,9.63c-.81.25-2.65.9-3.06,1.64-1.23,2.28-1,6.54-1,11.91a63.26,63.26,0,0,0,1.82,14.82,50.441,50.441,0,0,0,11.76,5s-25.82,67.42-51.64.35c0,0,14-3.94,15.06-5,.26-8,.63-20,.52-20-2.86-1.7-13-.69-12.24-21,.72-18.79,13.86-20.8,17.27-21.05C120.1,77.42,129.8,75.6,134.77,97.94Z" fill="#ffa288"/>
        <path id="Path_2606" data-name="Path 2606" d="M141.93,103.26s-4.51-5.45-6.13,3.8" fill="#d66956"/>
        <path id="Path_2607" data-name="Path 2607" d="M118.55,102.08a4.52,4.52,0,1,0,3.415.576,4.53,4.53,0,0,0-3.415-.576Z" fill="#e7786b" opacity="0.63"/>
        <path id="Path_2608" data-name="Path 2608" d="M100.69,108.36a4.53,4.53,0,0,0-.59-8.46S99.46,105.23,100.69,108.36Z" fill="#e7786b" opacity="0.63"/>
        <path id="Path_2609" data-name="Path 2609" d="M111.33,106.38a4.45,4.45,0,0,1-4.58,1.74,4.78,4.78,0,0,1-3.09-2.5" fill="none" stroke="#000" stroke-linecap="round" stroke-miterlimit="10" stroke-width="0.54"/>
        <path id="Path_2610" data-name="Path 2610" d="M107.53,101.77l.64,3.45h-1.83a.45.45,0,0,1-.38-.66Z" fill="#d66956"/>
        <path id="Path_2611" data-name="Path 2611" d="M115.24,96.1c.79.67-.27-2.08-1.38-2.49a2,2,0,0,0-2.67,1,6.36,6.36,0,0,1,4.05,1.49Z"/>
        <path id="Path_2612" data-name="Path 2612" d="M102.14,94.66c-.89.51.64-2,1.81-2.21a2,2,0,0,1,2.44,1.47,6.3,6.3,0,0,0-4.25.74Z"/>
        <path id="Path_2613" data-name="Path 2613" d="M111.25,119.39a29.48,29.48,0,0,0,9.52-.94C118.47,124.67,113.47,124.27,111.25,119.39Z" fill="#d66956"/>
        <path id="Path_2614" data-name="Path 2614" d="M108.27,72.62c-13.63-5.74-9.41,20.44-9.41,20.44,4.16.51,6-2.9,7.27-6.84a6.63,6.63,0,0,1,3.85-4h0A2,2,0,0,0,111.23,80h0a13.23,13.23,0,0,0,9,13.39h0a5.79,5.79,0,0,0,7.42-7L127.32,85l4.26,12.72c1.36,2.48,5.21,0,7.81-1.07h0S133.09,59.86,108.27,72.62Z" fill="#863c3e"/>
        <path id="Path_2615" data-name="Path 2615" d="M112.84,102.26c-1,.35-2.26.72-3.16-.35" fill="none" stroke="#000" stroke-linecap="round" stroke-miterlimit="10" stroke-width="0.54"/>
        <path id="Path_2616" data-name="Path 2616" d="M105.91,101.66c-1,.35-2.27.73-3.16-.35" fill="none" stroke="#000" stroke-linecap="round" stroke-miterlimit="10" stroke-width="0.54"/>
        <path id="Path_2617" data-name="Path 2617" d="M104.15,141.12c-3.23,1.59-11.3,2.27-15.6,3.94,2.51,12,.53,28,1.35,37.51,1.12,13,.71,33.86.71,33.86s43.52.95,56.31,1.79c7-21.41,14.65-55.19,10.3-71.72l-14.34-5C139.21,148.64,104.73,145.55,104.15,141.12Z" fill="#ffe8d8"/>
        <g id="Group_267" data-name="Group 267" opacity="0.38">
          <path id="Path_2618" data-name="Path 2618" d="M151.1,146.66c3.65,17.48,2.51,51.19-4.18,71.56-6.5-.43-20.91-.88-33.53-1.23C131.57,196.94,146.94,173.46,151.1,146.66Z" fill="#d8c7bc"/>
        </g>
        <path id="Path_2619" data-name="Path 2619" d="M143.57,217.51c13.75,16.49,23.21,60.13,23.21,60.13l-94.46-2.27s5.44-42.86,22.78-58.76C95.16,216.73,121.81,215.71,143.57,217.51Z" fill="#6e7dd6"/>
        <path id="Path_2620" data-name="Path 2620" d="M143.57,217.51c13.75,16.49,23.21,60.13,23.21,60.13l-94.46-2.27s5.44-42.86,22.78-58.76C95.16,216.73,121.81,215.71,143.57,217.51Z" fill="#6e7dd6" opacity="0.44"/>
        <path id="Path_2621" data-name="Path 2621" d="M54.3,286.08c-1.72-.3,0-3.5,4.05-4.7,6.4-1.92,16.7-5.54,19.72-9.21,3.49-4.24,6.72-5.9,9-6.51a5.54,5.54,0,0,1,5,1.15,6.55,6.55,0,0,0,3.44,1.72,13.662,13.662,0,0,0,3.18-.27L98,287.77S62.07,287.43,54.3,286.08Z" fill="#ffa288"/>
        <path id="Path_2622" data-name="Path 2622" d="M95.24,287.59s120-1.76,120.84-32.8c.77-28.68-46.93-21.86-52-21.15-18.81,2.69-69.45,26.15-69.45,26.15Z" fill="#6e7dd6"/>
        <path id="Path_2623" data-name="Path 2623" d="M127.19,245.84,95.63,259.11l.68,28.57s77.16-4.16,95.27-13.22Z" fill="#d8c7bc" opacity="0.28"/>
        <line id="Line_5" data-name="Line 5" x1="3.44" y1="31.88" transform="translate(102.83 255.44)" fill="none" stroke="#fff" stroke-miterlimit="10" stroke-width="1.08"/>
        <path id="Path_2624" data-name="Path 2624" d="M132.57,286S17.66,282.08,21,251.22c2.51-22.95,40.17-18.48,58.1-12.2S134,262,134,262Z" fill="#6e7dd6"/>
        <path id="Path_2625" data-name="Path 2625" d="M175.83,286.06c1.75-.13.3-3.48-3.57-5.06-6.18-2.54-16.08-7.14-18.73-11.09-3.06-4.56-6.12-6.52-8.37-7.35a5.53,5.53,0,0,0-5.06.66,6.57,6.57,0,0,1-3.58,1.38,13.649,13.649,0,0,1-3.15-.58l-1.16,19.49S168,286.65,175.83,286.06Z" fill="#ffa288"/>
        <line id="Line_6" data-name="Line 6" x1="2.39" y2="24.98" transform="translate(125.4 259.59)" fill="none" stroke="#fff" stroke-miterlimit="10" stroke-width="1.08"/>
        <path id="Path_2626" data-name="Path 2626" d="M115.8,188.46s.72-4.13,1.44-3.05,2.51,12.73,2.51,12.73Z" fill="#d66956"/>
        <path id="Path_2627" data-name="Path 2627" d="M119.75,220.2c19.72,2.53,53.31,2.9,54.69-.18,9.86-3.77-.72-43.22-7.17-60.25-3.51-9.25-8.13-14.08-13.09-15.07-9.15-1.43-.22,51.09,2.86,56,0,0-6.09-1.43-34.6,5.92,0,0-5.29-16.87-6.64-18.11,0,0-2-1.44-1.25,1.25s1.69,27.54,2.33,28.33C119,220.73,119.75,220.2,119.75,220.2Z" fill="#ffa288"/>
        <path id="Path_2628" data-name="Path 2628" d="M114.65,188.46s-.72-4.13-1.44-3.05-2.51,12.73-2.51,12.73Z" fill="#d66956"/>
        <path id="Path_2629" data-name="Path 2629" d="M110.7,220.2c-19.7,2.53-43.7-6.42-45.11-9.51-9.86-3.77,4.35-35.47,12.74-51.64,5-9.68,9.73-14.79,14.7-15.78,13.63-1.08-6.1,47.7-6.46,53.44,0,0,2.87,3.58,21.44,9.86,0,0,5.29-16.87,6.64-18.11,0,0,2-1.44,1.25,1.25s-1.69,27.54-2.33,28.33C111.42,220.73,110.7,220.2,110.7,220.2Z" fill="#ffa288"/>
      </g>
    </g>
  </g>
</svg>
