<svg xmlns="http://www.w3.org/2000/svg" width="273.29" height="308.953" viewBox="0 0 273.29 308.953">
  <g id="Asset_3" data-name="Asset 3" transform="translate(0.005 0.013)">
    <g id="Layer_2" data-name="Layer 2">
      <g id="OBJECTS">
        <g id="Group_268" data-name="Group 268" opacity="0.31">
          <path id="Path_2630" data-name="Path 2630" d="M74.54,241.62c14.44,14.25,29,28.6,46.07,39.61s37,18.58,57.22,17.75c16.33-.67,32-6.69,46.73-13.69,11.15-5.3,22.19-11.32,30.9-20.07,22-22.07,23.89-61,4.25-85.12-14.08-17.31-36.28-26.19-51.36-42.64-25.81-28.15-26.26-72.95-51.91-101.24C139.36,17.39,111.87,8.69,87.08,14.27c-10.17,2.28-20.23,7.14-26.23,15.66-9.71,13.81-6.25,32.61-2.12,49s8.24,34.84-.58,49.25c-8.53,13.94-27.18,20.17-33.36,35.3-5.28,12.95.53,27.51,6.37,40.21,4.67,10.14,10.42,21.2,21,24.91,11.54,4.06,24.43-2.38,36.41.09" fill="#d8d3cf"/>
          <path id="Path_2631" data-name="Path 2631" d="M234.15,137.49c-5.59-4.8-10.79-10.51-12.93-17.56s-.47-15.67,5.52-20c7.84-5.61,19.26-1.61,26,5.3,5.7,5.85,9.48,14.26,7.61,22.21s-10.84,14.2-18.47,11.27" fill="#d8d3cf"/>
        </g>
        <path id="Path_2632" data-name="Path 2632" d="M242.31,308.94H4.71l32.14-48.92H210.16Z" fill="#863c3e"/>
        <path id="Path_2633" data-name="Path 2633" d="M32.35,239.8C19.63,233,12.74,224.64,8.22,211c-1.07-3.24-1.65-7.31.84-9.64,2.68-2.5,7-1.29,10.26.44a46.31,46.31,0,0,1,15.15,13.06c5.17,6.93,9.5,16.12,18,17.64a3.5,3.5,0,0,0,2.31-.19c2.09-1.15.74-4.29-.58-6.28a28.8,28.8,0,0,1-4.56-12.15,4.41,4.41,0,0,1,.15-2.34,3.66,3.66,0,0,1,2.72-1.87c4.07-.88,8,1.66,11.29,4.28,8.26,6.68,19.74,17.76,25.43,26.73" fill="#b2cdc1"/>
        <path id="Path_2634" data-name="Path 2634" d="M116.63,164.25A59.62,59.62,0,0,1,86.9,143.62c-3.55-4.64-6.48-10-6.85-15.87-.2-3.27,1.06-7.29,4.29-7.89,2.33-.43,4.51,1.17,6.29,2.74a92.42,92.42,0,0,1,26.93,41.86" fill="#b2cdc1"/>
        <path id="Path_2635" data-name="Path 2635" d="M48,179.71c-6-1.23-12.14-2.51-17.62-5.31S20,167.05,18.22,161.17c-.72-2.33-.89-5,.52-7,1.77-2.5,5.34-2.95,8.38-2.52a26,26,0,0,1,16.33,9.79,38.36,38.36,0,0,1,7.44,17.81" fill="#b2cdc1"/>
        <path id="Path_2636" data-name="Path 2636" d="M57.46,183.35a39.22,39.22,0,0,1-3.62-10.55c-1-5-1.39-10.55,1.58-14.64a5.05,5.05,0,0,1,3.7-2.36,5.13,5.13,0,0,1,2.59.76,11.49,11.49,0,0,1,5.79,9c.29,3.4-1,6.76-2.68,9.71s-3.85,5.63-5.58,8.57" fill="#b2cdc1"/>
        <path id="Path_2637" data-name="Path 2637" d="M66.51,192.54a54.36,54.36,0,0,0-11.65-1.83,18.26,18.26,0,0,0-11.15,3.2,2.9,2.9,0,0,0-1.28,1.69,2.62,2.62,0,0,0,.64,1.94,8.24,8.24,0,0,0,6.45,3A18.77,18.77,0,0,0,56.64,199c3.09-1.2,6.24-2.84,7.92-5.7" fill="#b2cdc1"/>
        <path id="Path_2638" data-name="Path 2638" d="M80.37,202.72a46.749,46.749,0,0,1-2.79-10.86,15.84,15.84,0,0,1,2.48-10.72,2.24,2.24,0,0,1,1.08-.92,2.13,2.13,0,0,1,1.66.34,9.49,9.49,0,0,1,4,5.75A17.47,17.47,0,0,1,82.57,203" fill="#b2cdc1"/>
        <path id="Path_2639" data-name="Path 2639" d="M26.82,158.77c1.84,7.54,9.3,12.18,15.13,16.52,6.47,4.83,13.07,9.48,19.65,14.16,13,9.3,26.07,18.79,37.45,30.12a123.529,123.529,0,0,1,17,20.86c.48.75,1.69.06,1.2-.7-8.48-13.26-19.76-24.37-31.93-34.24-12.37-10-25.62-18.91-38.48-28.3-3.61-2.63-7.24-5.26-10.71-8.08s-6.88-6.18-8-10.71a.7.7,0,1,0-1.35.37Z" fill="#b2cdc1"/>
        <g id="Group_269" data-name="Group 269">
          <path id="Path_2640" data-name="Path 2640" d="M53.07,224.1a16.28,16.28,0,0,1,10.06-10.74C60,211,56.32,208.8,52.52,209.61a3.7,3.7,0,0,0-2.72,1.88,4.41,4.41,0,0,0-.15,2.34,28.78,28.78,0,0,0,3.42,10.27Z" fill="#b2cdc1"/>
          <path id="Path_2641" data-name="Path 2641" d="M31.78,235a103,103,0,0,1-12.73-17.16c-2.3-4.07-4.83-9.33-3.26-14.1a8,8,0,0,1,1.61-2.88c-2.88-1.16-6.16-1.58-8.34.45-2.49,2.33-1.91,6.4-.84,9.64C12.74,224.64,19.63,233,32.35,239.8l3.75.06C34.6,238.25,33.17,236.58,31.78,235Z" fill="#b2cdc1"/>
          <path id="Path_2642" data-name="Path 2642" d="M109.49,149c1.5,2.2,3.12,4.31,4.76,6.4a92.35,92.35,0,0,0-11-19.12C102.6,139.62,108.28,147.25,109.49,149Z" fill="#b2cdc1"/>
          <path id="Path_2643" data-name="Path 2643" d="M87.28,137a12.15,12.15,0,0,1,5.22-12.64c-.62-.58-1.24-1.16-1.87-1.72-1.78-1.57-4-3.17-6.29-2.74-3.23.6-4.49,4.62-4.29,7.89.37,5.84,3.3,11.23,6.85,15.87a59,59,0,0,0,6,6.66A35.65,35.65,0,0,1,87.28,137Z" fill="#b2cdc1"/>
          <path id="Path_2644" data-name="Path 2644" d="M44.06,178.57c-8.8-2.51-17.76-12.7-19.75-21.55a17.65,17.65,0,0,1-.37-5.49,7,7,0,0,0-5.2,2.6c-1.41,2-1.24,4.71-.52,7C20,167.05,24.9,171.6,30.38,174.4S42,178.48,48,179.71l2.89-.5a5.581,5.581,0,0,0-.17-.89,9.88,9.88,0,0,1-6.66.25Z" fill="#b2cdc1"/>
          <path id="Path_2645" data-name="Path 2645" d="M67.5,165.52a11.49,11.49,0,0,0-5.79-9,7.942,7.942,0,0,0-1-.45c2.37,6.71,3.64,14.16-.25,20.39a4.42,4.42,0,0,1-5.07,2.06,31.1,31.1,0,0,0,2.05,4.79l1.78.45c1.73-2.94,3.88-5.61,5.58-8.57S67.79,168.92,67.5,165.52Z" fill="#b2cdc1"/>
          <path id="Path_2646" data-name="Path 2646" d="M48.76,196.35a10.33,10.33,0,0,1-3.1-3.64,14.6,14.6,0,0,0-1.95,1.2,2.9,2.9,0,0,0-1.28,1.69,2.62,2.62,0,0,0,.64,1.94,8.24,8.24,0,0,0,6.45,3,17,17,0,0,0,6.07-1.17A15.88,15.88,0,0,1,48.76,196.35Z" fill="#b2cdc1"/>
          <path id="Path_2647" data-name="Path 2647" d="M80.9,185.33a11.17,11.17,0,0,1,5.6.1,9,9,0,0,0-3.7-4.87,2.13,2.13,0,0,0-1.66-.34,2.24,2.24,0,0,0-1.08.92,13.62,13.62,0,0,0-2.29,5.59A9.39,9.39,0,0,1,80.9,185.33Z" fill="#b2cdc1"/>
        </g>
        <path id="Path_2648" data-name="Path 2648" d="M211.53,239.8c12.72-6.77,19.62-15.16,24.13-28.85,1.08-3.24,1.66-7.31-.84-9.64-2.68-2.5-7-1.29-10.25.44a46.2,46.2,0,0,0-15.15,13.06c-5.17,6.93-9.5,16.12-18,17.64a3.51,3.51,0,0,1-2.31-.19c-2.08-1.15-.73-4.29.59-6.28a28.92,28.92,0,0,0,4.55-12.15,4.41,4.41,0,0,0-.14-2.34,3.68,3.68,0,0,0-2.73-1.87c-4.07-.88-8,1.66-11.29,4.28-8.26,6.68-19.73,17.76-25.42,26.73" fill="#b2cdc1"/>
        <path id="Path_2649" data-name="Path 2649" d="M141.2,137.7a32.8,32.8,0,0,0,13.86-14.26,16.4,16.4,0,0,0,2-9.28c-.23-1.79-1.34-3.82-3.14-3.8-1.3,0-2.31,1.1-3.1,2.14a50.82,50.82,0,0,0-10.12,25.4" fill="#b2cdc1"/>
        <path id="Path_2650" data-name="Path 2650" d="M195.89,179.71c6-1.23,12.13-2.51,17.61-5.31s10.35-7.35,12.17-13.23c.72-2.33.88-5-.53-7-1.77-2.5-5.33-2.95-8.37-2.52a26,26,0,0,0-16.34,9.79A38.35,38.35,0,0,0,193,179.21" fill="#b2cdc1"/>
        <path id="Path_2651" data-name="Path 2651" d="M186.43,183.35A39.55,39.55,0,0,0,190,172.8c1-5,1.39-10.55-1.58-14.64a4.3,4.3,0,0,0-6.28-1.6,11.53,11.53,0,0,0-5.8,9c-.28,3.4,1,6.76,2.69,9.71s3.84,5.63,5.57,8.57" fill="#b2cdc1"/>
        <path id="Path_2652" data-name="Path 2652" d="M177.37,192.54A54.359,54.359,0,0,1,189,190.71a18.24,18.24,0,0,1,11.15,3.2,2.9,2.9,0,0,1,1.28,1.69,2.57,2.57,0,0,1-.63,1.94,8.25,8.25,0,0,1-6.45,3,18.78,18.78,0,0,1-7.13-1.56c-3.09-1.2-6.24-2.84-7.92-5.7" fill="#b2cdc1"/>
        <path id="Path_2653" data-name="Path 2653" d="M163.51,202.72a46.749,46.749,0,0,0,2.79-10.86,15.78,15.78,0,0,0-2.48-10.72,2.24,2.24,0,0,0-1.08-.92,2.1,2.1,0,0,0-1.65.34,9.41,9.41,0,0,0-4,5.75A17.44,17.44,0,0,0,161.31,203" fill="#b2cdc1"/>
        <path id="Path_2654" data-name="Path 2654" d="M215.72,158.4c-1,4-3.73,7.07-6.77,9.69s-6.29,4.95-9.49,7.32c-6.45,4.76-13,9.35-19.52,14-12.85,9.18-25.65,18.62-36.79,29.87a124.561,124.561,0,0,0-16.54,20.44c-.48.75.72,1.45,1.21.7,8.63-13.5,20.21-24.72,32.64-34.71,12.59-10.12,26-19.07,39-28.63,3.52-2.59,7.11-5.15,10.43-8s6.09-6.09,7.12-10.31c.22-.87-1.13-1.24-1.34-.37Z" fill="#b2cdc1"/>
        <g id="Group_270" data-name="Group 270">
          <path id="Path_2655" data-name="Path 2655" d="M143.45,128.73c-.58,1.35-1.23,2.66-1.89,4a50.569,50.569,0,0,1,3.93-11.48C146.17,122.94,143.91,127.65,143.45,128.73Z" fill="#b2cdc1"/>
        </g>
        <g id="Group_271" data-name="Group 271">
          <path id="Path_2656" data-name="Path 2656" d="M154.15,119.89a6.67,6.67,0,0,0-4.14-6.27c.27-.38.55-.75.83-1.12.79-1,1.8-2.13,3.1-2.14,1.8,0,2.91,2,3.14,3.8a16.4,16.4,0,0,1-2,9.28,31.558,31.558,0,0,1-2.52,4.22A19.35,19.35,0,0,0,154.15,119.89Z" fill="#b2cdc1"/>
        </g>
        <g id="Group_272" data-name="Group 272">
          <path id="Path_2657" data-name="Path 2657" d="M190.81,224.1a16.24,16.24,0,0,0-10.06-10.74c3.11-2.41,6.82-4.56,10.61-3.75a3.72,3.72,0,0,1,2.73,1.88,4.41,4.41,0,0,1,.14,2.34,28.779,28.779,0,0,1-3.42,10.27Z" fill="#b2cdc1"/>
          <path id="Path_2658" data-name="Path 2658" d="M212.1,235a103.57,103.57,0,0,0,12.74-17.16c2.29-4.07,4.82-9.33,3.26-14.1a8.2,8.2,0,0,0-1.62-2.88c2.88-1.16,6.16-1.58,8.34.45,2.5,2.33,1.92,6.4.84,9.64-4.51,13.69-11.41,22.08-24.13,28.85l-3.75.06C209.28,238.25,210.71,236.58,212.1,235Z" fill="#b2cdc1"/>
          <path id="Path_2659" data-name="Path 2659" d="M199.82,178.57c8.8-2.51,17.76-12.7,19.76-21.55a18.271,18.271,0,0,0,.37-5.49,6.93,6.93,0,0,1,5.19,2.6c1.41,2,1.25,4.71.53,7-1.82,5.88-6.69,10.43-12.17,13.23s-11.59,4.08-17.61,5.31l-2.89-.5a5.547,5.547,0,0,1,.16-.89,9.88,9.88,0,0,0,6.66.29Z" fill="#b2cdc1"/>
          <path id="Path_2660" data-name="Path 2660" d="M176.38,165.52a11.53,11.53,0,0,1,5.8-9,8.53,8.53,0,0,1,1-.45c-2.37,6.71-3.63,14.16.25,20.39a4.43,4.43,0,0,0,5.07,2.06,32.058,32.058,0,0,1-2,4.79l-1.79.45c-1.73-2.94-3.87-5.61-5.57-8.57S176.1,168.92,176.38,165.52Z" fill="#b2cdc1"/>
          <path id="Path_2661" data-name="Path 2661" d="M195.13,196.35a10.31,10.31,0,0,0,3.09-3.64,13.429,13.429,0,0,1,1.95,1.2,2.9,2.9,0,0,1,1.28,1.69,2.57,2.57,0,0,1-.63,1.94,8.25,8.25,0,0,1-6.45,3,17,17,0,0,1-6.08-1.17A16,16,0,0,0,195.13,196.35Z" fill="#b2cdc1"/>
          <path id="Path_2662" data-name="Path 2662" d="M163,185.33a11.17,11.17,0,0,0-5.6.1,9,9,0,0,1,3.71-4.87,2.1,2.1,0,0,1,1.65-.34,2.24,2.24,0,0,1,1.08.92,13.48,13.48,0,0,1,2.29,5.59,9.3,9.3,0,0,0-3.13-1.4Z" fill="#b2cdc1"/>
        </g>
        <g id="Group_273" data-name="Group 273" opacity="0.51">
          <circle id="Ellipse_46" data-name="Ellipse 46" cx="2.16" cy="2.16" r="2.16" transform="translate(51.52 138.92)" fill="#b2cdc1"/>
          <path id="Path_2663" data-name="Path 2663" d="M9.47,189.62a3.09,3.09,0,1,0-3.09,3.09A3.09,3.09,0,0,0,9.47,189.62Z" fill="#b2cdc1"/>
          <path id="Path_2664" data-name="Path 2664" d="M46,70a5.56,5.56,0,1,0-1.625,3.938A5.56,5.56,0,0,0,46,70Z" fill="#b2cdc1"/>
          <path id="Path_2665" data-name="Path 2665" d="M157.25,83.88a2.47,2.47,0,1,0-2.47,2.48,2.47,2.47,0,0,0,2.47-2.48Z" fill="#b2cdc1"/>
          <path id="Path_2666" data-name="Path 2666" d="M242,185a4,4,0,1,0-4,4A4,4,0,0,0,242,185Z" fill="#b2cdc1"/>
          <circle id="Ellipse_47" data-name="Ellipse 47" cx="1.55" cy="1.55" r="1.55" transform="translate(192.18 133.65)" fill="#b2cdc1"/>
          <path id="Path_2667" data-name="Path 2667" d="M127,29.78a4.32,4.32,0,1,0-1.262,3.061A4.33,4.33,0,0,0,127,29.78Z" fill="#b2cdc1"/>
        </g>
        <path id="Path_2668" data-name="Path 2668" d="M192,71.19a11.81,11.81,0,1,0-11.57-12.06A11.81,11.81,0,0,0,192,71.19Z" fill="none" stroke="#b2cdc1" stroke-miterlimit="10" stroke-width="0.79"/>
        <path id="Path_2669" data-name="Path 2669" d="M183.28,49.74c-4.68-2.2-4.42.37-4.22,1.69a3.73,3.73,0,0,0,.77,1.57c4.89,6.64,12.42,10.78,20,14,1.84.78,3.94,1.52,5.78.73a2,2,0,0,0,.95-.77c.6-1-.4-2.25-1.32-3" fill="none" stroke="#b2cdc1" stroke-miterlimit="10" stroke-width="0.79"/>
        <path id="Path_2670" data-name="Path 2670" d="M39.45,113.13a9.32,9.32,0,1,0-9.51,9.13,9.32,9.32,0,0,0,9.51-9.13Z" fill="none" stroke="#b2cdc1" stroke-miterlimit="10" stroke-width="0.62"/>
        <path id="Path_2671" data-name="Path 2671" d="M22.53,120c-1.73,3.7.29,3.49,1.34,3.34a2.82,2.82,0,0,0,1.23-.62C30.34,118.9,33.61,113,36.16,107c.61-1.45,1.2-3.11.57-4.56a1.54,1.54,0,0,0-.6-.75c-.82-.47-1.78.32-2.39,1" fill="none" stroke="#b2cdc1" stroke-miterlimit="10" stroke-width="0.62"/>
        <path id="Path_2672" data-name="Path 2672" d="M145.07,219.21l-.94,5.87-43.41,5.4-3.61-8.37Z" fill="#ffa288"/>
        <path id="Path_2673" data-name="Path 2673" d="M212.86,196.7c-.26,1,.86,1.47,3,2.08,1.75,2.45-3.84,3.49-3.84,3.49l-4.72.18s-1.75,0-.7-2.45,1.15-1.91,2.62-2.09,5-.51,3.67-2.27c-.52-.7-3.81-1.93-5.76-1.93-.76,0-3.15,2.62-4.55,4s-2.73,5.42-2.73,5.42c-21.43,4.66-33.66-1.46-33.66-1.46-3.07-9.35-7.07-56.86-23.43-54.57-3.06.43-9.46,10.45-8.48,19.77.31,14.81,8.7,29.38,12.22,49.36,2.45,13.86,38.38,2,57.48-1.22,0,0,29.88-4.54,29.35-7.17s-13.45-.34-13.45-.34,14.33.17,14-2.28-16.6-.17-16.6-.17l2.13-1.64a2.1,2.1,0,0,0,.69-2.35l-1.15-3.33a2.1,2.1,0,0,0-1.55-1.36c-.82-.16-1.82-.48-2.6-.7a1.53,1.53,0,0,0-1.94,1.03Z" fill="#ffa288"/>
        <path id="Path_2674" data-name="Path 2674" d="M137.05,83.73c4.3-12.17-2-23.48-13.5-26.34C105,52.78,106.33,53.58,98.64,34.15A47.25,47.25,0,0,0,76.17,9.61C71.06,7.05,65,5.44,59.66,7.43c-18.1,6.73.79,16.54,6.5,21.34a5,5,0,0,1,2,2.83,3.92,3.92,0,0,1-.78,2.72c-2.87,4.28-8.95,4.55-14.11,4.53s-11.33.7-13.67,5.3c-2.2,4.32.45,9.61,3.92,13s7.86,6,10.44,10.07,2.94,9.1,3.51,13.88c2.88,24.2,12.54,43.53,38.88,48.08,18.48,3.19,41.84-5,41.19-27.18" fill="#3e1c1a"/>
        <path id="Path_2675" data-name="Path 2675" d="M136.85,79.58C140.3,81.75,142,75,142.43,73c1-4.48,1.31-9.33-.23-13.73a16.39,16.39,0,0,0-6.72-8.63c-3.37-2-7.29-2.19-11.1-1.68-4.31.57-8.59,1.92-13,1.7A12.56,12.56,0,0,1,101,44.26c-5-8.32-2.42-18.48-5.39-27.37A26.16,26.16,0,0,0,77.15,0c-.49-.12-.7.64-.21.76A25.48,25.48,0,0,1,94.05,15c3.66,8.17,1.54,17.49,4.51,25.83A17.15,17.15,0,0,0,104.13,49c2.91,2.18,6.51,2.7,10.06,2.41,7.63-.64,16.24-4.52,22.82,1.36a17.48,17.48,0,0,1,5.47,12.65,28.85,28.85,0,0,1-1,8.06c-.37,1.44-1.72,7.07-4.27,5.47-.43-.27-.82.41-.39.68Z" fill="#3e1c1a"/>
        <path id="Path_2676" data-name="Path 2676" d="M114.31,124.91a29.59,29.59,0,0,1-46.9-5.44c-3.25-5.56-4.56-12-4.77-18.35-.25-7.32.81-14.61,2-21.83.08-.49-.68-.71-.76-.2-2,12.87-4.13,27.25,2.1,39.34a30.64,30.64,0,0,0,30.38,16.24,31,31,0,0,0,18.56-9.2c.35-.37-.21-.92-.56-.56Z" fill="#3e1c1a"/>
        <path id="Path_2677" data-name="Path 2677" d="M106.53,98.7a.78.78,0,0,1-1,.6c-1.81-.47-5.92-1.92-7.72,2.69s2.08,8.53,4.8,9.38c.79.25,2.58.88,3,1.6,1.2,2.23,1,6.37,1,11.61a65.38,65.38,0,0,1-4,21.75s22.52,14.89,25.81.8c0,0-.1-27.17.07-27.27,2.78-1.66,12.67-.67,11.91-20.43-.7-18.3-13.5-20.26-16.82-20.51C120.82,78.72,111.37,76.94,106.53,98.7Z" fill="#ffa288"/>
        <path id="Path_2678" data-name="Path 2678" d="M99.56,103.89s4.39-5.3,6,3.7" fill="#d66956"/>
        <path id="Path_2679" data-name="Path 2679" d="M122.34,102.74a4.41,4.41,0,1,1-5.29,3.31,4.41,4.41,0,0,1,5.29-3.31Z" fill="#e7786b" opacity="0.63"/>
        <path id="Path_2680" data-name="Path 2680" d="M139.74,108.86a4.42,4.42,0,0,1,.57-8.24S140.94,105.81,139.74,108.86Z" fill="#e7786b" opacity="0.63"/>
        <path id="Path_2681" data-name="Path 2681" d="M129.37,106.93a4.35,4.35,0,0,0,4.46,1.7,4.64,4.64,0,0,0,3-2.44" fill="none" stroke="#000" stroke-linecap="round" stroke-miterlimit="10" stroke-width="0.53"/>
        <path id="Path_2682" data-name="Path 2682" d="M133.07,102.44l-.62,3.36h1.78a.43.43,0,0,0,.37-.64Z" fill="#d66956"/>
        <path id="Path_2683" data-name="Path 2683" d="M125.56,96.92c-.77.64.26-2,1.35-2.43a2,2,0,0,1,2.6,1,6.19,6.19,0,0,0-3.95,1.43Z"/>
        <path id="Path_2684" data-name="Path 2684" d="M138.32,95.51c.87.5-.62-2-1.76-2.15a2,2,0,0,0-2.38,1.43,6.19,6.19,0,0,1,4.14.72Z"/>
        <path id="Path_2685" data-name="Path 2685" d="M129.45,119.6a28.46,28.46,0,0,1-9.27-.91C122.41,124.75,127.28,124.36,129.45,119.6Z" fill="#d66956"/>
        <path id="Path_2686" data-name="Path 2686" d="M136,75.7C146.41,81,141.52,94,141.52,94c-5,.61-10.13-6.37-11.58-11.2l-.47-1.56h0a12.89,12.89,0,0,1-8.8,13l-9.92,3.3,3-11.45L109,99.55l-7-2.1S111.86,63.26,136,75.7Z" fill="#3e1c1a"/>
        <path id="Path_2687" data-name="Path 2687" d="M127.9,102.91c1,.35,2.21.71,3.08-.34" fill="none" stroke="#000" stroke-linecap="round" stroke-miterlimit="10" stroke-width="0.53"/>
        <path id="Path_2688" data-name="Path 2688" d="M134.65,102.33c1,.35,2.21.71,3.08-.34" fill="none" stroke="#000" stroke-linecap="round" stroke-miterlimit="10" stroke-width="0.53"/>
        <path id="Path_2689" data-name="Path 2689" d="M129.64,135.36s21.66-4,27.25,30.92l-25.15,4.2Z" fill="#6e7dd6"/>
        <path id="Path_2690" data-name="Path 2690" d="M145.2,150.05c-4.67-5-10.13-8.8-15.45-12.92l2,33.35,25.15-4.2c-.06-.41-.14-.8-.21-1.2a112.46,112.46,0,0,0-11.49-15.03Z" fill="#6e7dd6" opacity="0.58"/>
        <path id="Path_2691" data-name="Path 2691" d="M129.12,135.19c11.35,5.59,20.68,33.4,21.13,46s-.69,33-.69,33-42.4.92-54.86,1.75C87.85,195,87,159.8,91.2,143.69A82.75,82.75,0,0,1,104,136S122.15,159.79,129.12,135.19Z" fill="#6e7dd6"/>
        <g id="Group_274" data-name="Group 274" opacity="0.58">
          <path id="Path_2692" data-name="Path 2692" d="M90.63,146.18c-3.56,17-2.45,49.87,4.07,69.72,6.33-.42,20.37-.86,32.67-1.2C109.65,195.16,94.68,172.29,90.63,146.18Z" fill="#6e7dd6"/>
        </g>
        <path id="Path_2693" data-name="Path 2693" d="M21,196.7c.26,1-.87,1.47-3,2.08-1.75,2.45,3.84,3.49,3.84,3.49l4.72.18s1.75,0,.7-2.45-1.15-1.91-2.62-2.09-5-.51-3.67-2.27c.53-.7,3.81-1.93,5.77-1.93.75,0,3.14,2.62,4.54,4S34,203.15,34,203.15c21.43,4.66,33.66-1.46,33.66-1.46,3.06-9.35,7.06-56.86,23.42-54.57,3.07.43,9.46,10.45,8.49,19.77-.31,14.81-8.7,29.38-12.23,49.36-2.45,13.86-38.38,2-57.48-1.22,0,0-29.87-4.54-29.35-7.17S14,207.52,14,207.52s-14.32.17-14-2.28,16.59-.17,16.59-.17l-2.12-1.64a2.08,2.08,0,0,1-.7-2.35l1.15-3.33a2.1,2.1,0,0,1,1.55-1.36c.82-.16,1.82-.48,2.61-.7A1.54,1.54,0,0,1,21,196.7Z" fill="#ffa288"/>
        <path id="Path_2694" data-name="Path 2694" d="M96.1,139.73c8.82,1.85,18.51,11.53,4.89,40.88l-30.4-10.48S81.07,136.58,96.1,139.73Z" fill="#6e7dd6"/>
        <path id="Path_2695" data-name="Path 2695" d="M98,215.2c-13.4,16.08-22.61,58.59-22.61,58.59l92-2.22s-5.3-41.75-22.19-57.24C145.13,214.45,119.16,213.46,98,215.2Z" fill="#ffe8d8"/>
        <path id="Path_2696" data-name="Path 2696" d="M98,215.2c-13.4,16.08-22.61,58.59-22.61,58.59l92-2.22s-5.3-41.75-22.19-57.24C145.13,214.45,119.16,213.46,98,215.2Z" fill="#d8c7bc" opacity="0.38"/>
        <g id="Group_275" data-name="Group 275" opacity="0.31">
          <path id="Path_2697" data-name="Path 2697" d="M79.77,150.33a29.2,29.2,0,0,0,4.4,6.32c1.69,1.95,3.45,3.86,5,6a18.54,18.54,0,0,1,3.18,7.19,11.59,11.59,0,0,1,0,3.94,8,8,0,0,1-1.56,3.57,9.84,9.84,0,0,0,.91-7.39,18.79,18.79,0,0,0-3.22-6.84c-1.47-2.1-3.23-4-4.83-6.05A22.88,22.88,0,0,1,79.77,150.33Z" fill="#fff"/>
          <path id="Path_2698" data-name="Path 2698" d="M73.84,158.26a20.781,20.781,0,0,1,2.93,3,24.849,24.849,0,0,1,2.36,3.49,23.63,23.63,0,0,1,1.73,3.84,20.71,20.71,0,0,1,1,4.07c-.5-1.3-1-2.59-1.57-3.84s-1.18-2.49-1.86-3.69-1.39-2.36-2.15-3.51S74.69,159.37,73.84,158.26Z" fill="#fff"/>
          <path id="Path_2699" data-name="Path 2699" d="M91.52,141.47c.5,2.31.91,4.64,1.48,6.91A34.249,34.249,0,0,0,95.27,155a19.9,19.9,0,0,0,3.93,5.69,14.61,14.61,0,0,0,5.88,3.68,12.72,12.72,0,0,1-6.3-3.24,19.06,19.06,0,0,1-4.22-5.8,29.85,29.85,0,0,1-2.14-6.82,57.658,57.658,0,0,1-.9-7.04Z" fill="#fff"/>
          <path id="Path_2700" data-name="Path 2700" d="M104.18,212.79a57,57,0,0,1,2.06-7.87,51.13,51.13,0,0,1,3.28-7.47,43.28,43.28,0,0,1,10.24-12.68,36.63,36.63,0,0,1,14.56-7.28,33.159,33.159,0,0,1,8.12-.91,29.44,29.44,0,0,1,8,1.3,28.71,28.71,0,0,0-8-.91,32.461,32.461,0,0,0-8,1.11,36.67,36.67,0,0,0-14.21,7.3,44,44,0,0,0-10.21,12.36,51.88,51.88,0,0,0-3.45,7.31,56.87,56.87,0,0,0-2.39,7.74Z" fill="#fff"/>
          <path id="Path_2701" data-name="Path 2701" d="M151.27,193.93a16.87,16.87,0,0,0-4-1.6,5.06,5.06,0,0,0-3.95.58,3.23,3.23,0,0,0-1.22,1.51,17.171,17.171,0,0,0-.62,2,11.55,11.55,0,0,1-5.46,6.77c-1.28.72-2.61,1.28-3.9,1.88a10.56,10.56,0,0,0-3.44,2.4,5.3,5.3,0,0,0-1.54,3.83,5.27,5.27,0,0,1,1.25-4.08,10.89,10.89,0,0,1,3.45-2.69c1.28-.7,2.61-1.24,3.82-2a11.409,11.409,0,0,0,3.14-2.73,11.19,11.19,0,0,0,2-3.63c.22-.66.37-1.38.68-2.09A3.78,3.78,0,0,1,143,192.4a5.56,5.56,0,0,1,4.38-.44,14.81,14.81,0,0,1,3.89,1.97Z" fill="#fff"/>
          <path id="Path_2702" data-name="Path 2702" d="M137.18,136.83a38.08,38.08,0,0,0,2.78,5.39,35.46,35.46,0,0,0,3.63,4.81,35,35,0,0,0,4.41,4.11,37.551,37.551,0,0,0,5.07,3.33,23.63,23.63,0,0,1-5.43-2.84,26.389,26.389,0,0,1-4.63-4.07,26.829,26.829,0,0,1-3.57-5A23.86,23.86,0,0,1,137.18,136.83Z" fill="#fff"/>
          <path id="Path_2703" data-name="Path 2703" d="M131.07,136.83c.56,2.76,1,5.56,1.31,8.37s.45,5.64.48,8.48a20,20,0,0,1-1.21,8.46,7.15,7.15,0,0,1-2.85,3.33,9,9,0,0,1-4.23,1.1c-1.44.06-2.85,0-4.22.1a11.26,11.26,0,0,0-2,.34,7.131,7.131,0,0,0-1.81.85c-2.28,1.52-3.59,4.12-5.1,6.48A29.33,29.33,0,0,1,98.86,185.5a30.55,30.55,0,0,0,6.83-4.93,30.15,30.15,0,0,0,5.22-6.54c.72-1.21,1.4-2.45,2.22-3.63a11.63,11.63,0,0,1,3-3.14,8,8,0,0,1,2-.95,10.78,10.78,0,0,1,2.16-.39c1.44-.12,2.86-.07,4.24-.13a8.48,8.48,0,0,0,3.89-1,6.5,6.5,0,0,0,2.58-3c1.12-2.51,1.22-5.37,1.26-8.16a79.671,79.671,0,0,0-.26-8.45C131.74,142.37,131.5,139.62,131.07,136.83Z" fill="#fff"/>
        </g>
        <path id="Path_2704" data-name="Path 2704" d="M184.93,282c1.68-.29,0-3.4-3.94-4.57-6.23-1.88-16.27-5.4-19.21-9-3.4-4.13-6.55-5.75-8.81-6.34a5.35,5.35,0,0,0-4.84,1.12,6.41,6.41,0,0,1-3.35,1.68,13.67,13.67,0,0,1-3.11-.27l.72,19S177.36,283.33,184.93,282Z" fill="#ffa288"/>
        <path id="Path_2705" data-name="Path 2705" d="M145.05,283.49s-116.92-1.72-117.74-32c-.75-27.94,45.72-21.3,50.62-20.6,18.32,2.61,67.66,25.47,67.66,25.47Z" fill="#ffe8d8"/>
        <path id="Path_2706" data-name="Path 2706" d="M113.92,242.81l30.74,12.92L144,283.58s-75.18-4.06-92.83-12.89Z" fill="#d8c7bc" opacity="0.28"/>
        <line id="Line_7" data-name="Line 7" y1="31.06" x2="3.35" transform="translate(134.3 252.16)" fill="none" stroke="#fff" stroke-miterlimit="10" stroke-width="1.05"/>
        <path id="Path_2707" data-name="Path 2707" d="M108.67,281.94s112-3.82,108.67-33.89c-2.44-22.37-39.13-18-56.6-11.88s-53.46,22.36-53.46,22.36Z" fill="#ffe8d8"/>
        <path id="Path_2708" data-name="Path 2708" d="M66.53,282c-1.7-.13-.29-3.4,3.47-4.94,6-2.47,15.68-6.95,18.26-10.8,3-4.44,6-6.36,8.15-7.17a5.41,5.41,0,0,1,4.93.65,6.43,6.43,0,0,0,3.49,1.35,13.28,13.28,0,0,0,3.07-.57l1.12,19S74.19,282.57,66.53,282Z" fill="#ffa288"/>
        <line id="Line_8" data-name="Line 8" x2="2.33" y2="24.34" transform="translate(113.33 256.2)" fill="none" stroke="#fff" stroke-miterlimit="10" stroke-width="1.05"/>
      </g>
    </g>
  </g>
</svg>
