<svg id="support" xmlns="http://www.w3.org/2000/svg" width="20" height="20" viewBox="0 0 20 20">
  <path id="_15_Headphones" data-name="15 Headphones" d="M10,0A10,10,0,0,0,0,10v7.619A2.381,2.381,0,0,0,2.381,20h.952a1.429,1.429,0,0,0,1.429-1.429V14.286a1.429,1.429,0,0,0-1.429-1.429.952.952,0,0,1-.952-.952V10a7.619,7.619,0,1,1,15.238,0v1.9a.952.952,0,0,1-.952.952,1.429,1.429,0,0,0-1.429,1.429v4.286A1.429,1.429,0,0,0,16.667,20h.952A2.381,2.381,0,0,0,20,17.619V10A10,10,0,0,0,10,0Z" fill="#fff"/>
</svg>
