<svg xmlns="http://www.w3.org/2000/svg" xmlns:xlink="http://www.w3.org/1999/xlink" width="64" height="56" viewBox="0 0 64 56">
  <defs>
    <clipPath id="clip-path">
      <rect id="Rectangle_32" data-name="Rectangle 32" width="64" height="56" transform="translate(0.061 -0.101)" fill="#fff"/>
    </clipPath>
  </defs>
  <g id="Take_A_Breath" data-name="Take A Breath" transform="translate(-0.061 0.101)">
    <g id="Group_51" data-name="Group 51" transform="translate(0 0)" clip-path="url(#clip-path)">
      <path id="Path_19" data-name="Path 19" d="M346.08,788.429h-3.556a5.135,5.135,0,0,0,.015-6.03,5.444,5.444,0,0,0,2.181-1.057,1.588,1.588,0,0,0,.039-2.447l-8.542-7.3a4.572,4.572,0,0,1-1.363-2.021l-2-5.959,0-.006-1.8-5.365a8.056,8.056,0,0,0-5.21-5.112l-6.189-1.944a6.536,6.536,0,0,0,2.781-5.348v-4.3a6.542,6.542,0,1,0-13.084,0v4.3a6.532,6.532,0,0,0,2.553,5.179q-.241.066-.48.141l-6.277,1.971a8.056,8.056,0,0,0-5.21,5.112l-3.8,11.33a4.568,4.568,0,0,1-1.363,2.021l-8.542,7.3a1.588,1.588,0,0,0,.04,2.446,5.436,5.436,0,0,0,2.288,1.081,5.7,5.7,0,0,0-.324,4.726,5.114,5.114,0,0,0,.705,1.281h-4.029a.923.923,0,1,0,0,1.846H346.08a.923.923,0,0,0,0-1.846Zm-21-21.529,3.26,8.11a.944.944,0,0,0,.065.131,6.429,6.429,0,0,0,2.377,2.3l1.081.6-6.781-2.071Zm9.941,6.1,8.295,7.091a3.572,3.572,0,0,1-3.729.151l-7.907-4.407a4.579,4.579,0,0,1-1.656-1.579l-2.905-7.229,4.309-1.881,1.68,5.017A6.42,6.42,0,0,0,335.018,773ZM311.2,745.838v-4.3a4.7,4.7,0,1,1,9.392,0v4.3a4.7,4.7,0,1,1-9.392,0Zm-5.5,9.052,6.277-1.971a11.684,11.684,0,0,1,7.036,0l6.277,1.971a6.2,6.2,0,0,1,4.013,3.938l1.526,4.555-4.409,1.924-1.416-3.523a.923.923,0,0,0-1.779.344v13.605H307.772V762.129a.923.923,0,0,0-1.779-.344l-1.226,3.049-4.355-2.178,1.282-3.828a6.2,6.2,0,0,1,4.013-3.938ZM295.985,773a6.413,6.413,0,0,0,1.913-2.838l1.921-5.734,4.257,2.129-.671,1.669a.923.923,0,1,0,1.713.688l.808-2.01v9.071l-6.648,2,.947-.528a6.426,6.426,0,0,0,2.377-2.3.924.924,0,0,0,.065-.131l.69-1.717a.923.923,0,0,0-1.713-.688l-.661,1.646a4.573,4.573,0,0,1-1.656,1.579l-7.906,4.407a3.572,3.572,0,0,1-3.73-.15Zm-3.164,15.434h0a2.9,2.9,0,0,1-2.844-1.935,3.874,3.874,0,0,1,.875-4.061l16.136-4.853h17.032l15.319,4.678a3.288,3.288,0,0,1,1.064,5.737l-.556.435H320.354a4.69,4.69,0,0,0-1.087-2.273l1.839-.1a.923.923,0,0,0-.1-1.843l-5,.276c-.211-.038-.432-.07-.664-.093L301.1,782.909a.923.923,0,0,0-.192,1.836l14.235,1.487c.215.022.418.052.607.089l.012,0a3.15,3.15,0,0,1,2.714,2.107Zm0,0" transform="translate(-283.68 -734.882)" fill="#fff"/>
    </g>
  </g>
</svg>
