<svg id="yoga-posture" xmlns="http://www.w3.org/2000/svg" width="21.78" height="25.427" viewBox="0 0 21.78 25.427">
  <g id="_x32_7_48_" transform="translate(0)">
    <g id="Group_353" data-name="Group 353">
      <path id="Path_2765" data-name="Path 2765" d="M170.608,8.068h.027a4.034,4.034,0,0,0,0-8.068h-.027a4.034,4.034,0,0,0,0,8.068Z" transform="translate(-159.659 0)" fill="#b7b4b4"/>
      <path id="Path_2766" data-name="Path 2766" d="M55.845,168.837,51.3,165.529l-1.438-3.513a1.7,1.7,0,0,0-1.607-1.052v0H43.058v0a1.7,1.7,0,0,0-1.607,1.052l-1.439,3.513-4.549,3.308a1.7,1.7,0,1,0,2,2.744L42.377,168l-.125,1.295-4.65,4.713a2.323,2.323,0,0,0,1.675,3.932H41.5a2.9,2.9,0,0,1-.938-2.156,2.74,2.74,0,0,1,2.64-2.825h2.532a2.361,2.361,0,0,1,1.487.678H43.2a2.152,2.152,0,0,0,0,4.293h3.893c.044,0,.088,0,.131-.008H51.93A2.323,2.323,0,0,0,53.6,174l-4.549-4.719h0L48.931,168l4.918,3.576a1.7,1.7,0,1,0,2-2.744Z" transform="translate(-34.764 -152.518)" fill="#b7b4b4"/>
    </g>
  </g>
</svg>
