<svg xmlns="http://www.w3.org/2000/svg" width="10.927" height="19.133" viewBox="0 0 10.927 19.133">
  <g id="Fitness" transform="translate(0 0)">
    <path id="Path_27" data-name="Path 27" d="M41.38,47.537c-.257,1.092.064,2.419.835,2.612s1.691-.792,1.969-1.905-.193-1.905-.963-2.1S41.659,46.424,41.38,47.537Z" transform="translate(-37.159 -36.234)" fill="#78b543"/>
    <path id="Path_28" data-name="Path 28" d="M24.191,18.089a5.473,5.473,0,0,0,8.713-4.41C33.1,8.477,28.686,7.6,28.858,3.4c-.557,3.061-.086,4.11.963,5.93,1.092,1.862,1.349,4.688-.749,6.1a2.917,2.917,0,0,1-4.56-2.569c0-2.654,1.541-4.859,2.462-7.236A7.469,7.469,0,0,0,27.188,0c.214,3.125-2.569,5.908-3.917,8.648C21.365,12.523,21.494,15.884,24.191,18.089Z" transform="translate(-21.982 0)" fill="#78b543"/>
  </g>
</svg>
